<svg width="258" height="200" viewBox="0 0 258 200" fill="none" xmlns="http://www.w3.org/2000/svg">
<mask id="mask0_18_305" style="mask-type:luminance" maskUnits="userSpaceOnUse" x="0" y="70" width="258" height="82">
<path d="M0 70.8795H257.903V151.689H0V70.8795Z" fill="white"/>
</mask>
<g mask="url(#mask0_18_305)">
<path d="M86.3097 70.9802C85.4366 71.1951 84.6441 71.6921 81.6621 73.8548C78.5122 76.1383 76.8332 77.2666 73.4751 79.3486C70.0498 81.4844 67.8401 82.6731 64.4283 84.2515C61.1575 85.7559 60.5799 86.1118 60.1501 86.8372C59.9687 87.1529 59.9352 87.2872 59.9352 87.7372C59.9419 88.1737 59.9822 88.3483 60.1568 88.6976C60.8553 90.0408 63.1522 92.1229 66.1409 94.1243C67.8469 95.266 69.1028 95.9847 70.7953 96.8108C71.4736 97.1399 71.9975 97.4152 71.9706 97.4152C71.8766 97.4152 70.0498 96.7503 69.0356 96.3474C67.4708 95.7093 65.5768 94.7489 63.6358 93.5937C61.5806 92.3579 60.8956 92.0691 59.9016 92.0087C58.6188 91.9214 57.7054 92.2908 54.9652 93.9765C48.9071 97.6906 44.414 99.8532 37.2209 102.553C33.6412 103.896 32.7479 104.293 32.1435 104.81C31.4584 105.394 31.2972 106.187 31.7203 106.872C32.2509 107.731 34.0777 108.745 37.7045 110.189C38.7186 110.592 38.7791 110.633 38.544 110.68C38.0604 110.767 37.5231 111.083 36.415 111.922C32.8554 114.622 28.9331 116.677 23.6139 118.618C21.4714 119.397 19.5237 119.982 16.3402 120.788C13.3985 121.533 12.8679 121.721 12.0888 122.306C11.5918 122.668 11.209 123.293 9.91279 125.791C7.56883 130.325 6.9778 131.312 2.99508 137.417C2.34361 138.404 1.65184 139.519 1.45707 139.902C0.993653 140.762 0.39591 142.347 0.335463 142.83C0.228004 143.777 1.04738 144.624 3.06896 145.638C4.79503 146.511 7.95837 147.229 11.8269 147.626C16.9379 148.15 21.8475 148.23 29.9943 147.935C37.1336 147.666 56.8323 147.646 64.9052 147.894C68.6461 148.008 73.2534 148.116 78.0622 148.203C83.4688 148.304 88.0627 148.405 93.5162 148.546C106.076 148.882 112.113 148.989 116.385 148.942C120.354 148.908 120.462 148.902 121.63 148.505L122.107 148.351L122.765 148.667C124.102 149.318 126.191 149.896 128.071 150.124C129.166 150.252 131.409 150.171 132.296 149.97C133.619 149.661 134.633 149.244 135.419 148.687L135.788 148.425L136.319 148.7C137.252 149.191 138.636 149.459 141.356 149.694C149.026 150.339 173.097 150.749 194.595 150.594C208.256 150.5 211.628 150.541 223.965 150.957C231.407 151.205 233.852 151.259 241.824 151.306C251.32 151.367 252.516 151.313 254.289 150.722C255.155 150.426 255.666 150.138 256.243 149.6C257.674 148.277 257.459 146.558 255.706 145.376C255.33 145.121 255.176 144.919 254.484 143.824C251.979 139.875 251.132 138.203 249.205 133.481C247.19 128.538 246.525 127.215 245.665 126.416C245.464 126.241 245.303 126.053 245.303 125.999C245.303 125.791 244.92 125.126 244.685 124.905C243.986 124.253 241.696 123.085 236.887 120.929C234.261 119.747 223.683 114.535 220.715 112.957C220.036 112.601 218.196 111.566 216.618 110.66C213.992 109.148 212.481 108.356 212.279 108.356C212.232 108.356 212.178 108.322 212.145 108.282C212.125 108.248 212.306 108.168 212.541 108.121C214.24 107.772 218.283 106.522 220.003 105.831C221.48 105.233 222.091 104.796 222.4 104.105C222.703 103.48 222.609 102.916 222.118 102.358C221.742 101.929 221.245 101.673 219.452 101.008C213.226 98.6846 209.096 96.5153 203.682 92.6937C201.923 91.4647 199.498 89.6647 197.638 88.2275C195.099 86.2529 194.427 85.8633 193.574 85.8633C192.923 85.8633 192.486 86.132 191.674 87.0387C189.706 89.208 188.369 90.249 186.032 91.4109C185.508 91.6796 184.669 92.049 184.185 92.237C181.136 93.4392 176.334 94.3191 170.726 94.6952C169.174 94.8026 167.623 94.8631 161.323 95.0444C156.971 95.172 154.305 95.3399 150.994 95.7026C143.398 96.522 139.092 97.6503 136.11 99.6249C132.987 101.693 131.087 105.058 130.335 109.8L130.16 110.901L129.992 110.028C129.764 108.833 129.562 108.087 129.193 107.006C127.883 103.184 126.144 100.37 123.309 97.4623C119.73 93.7952 115.492 91.0214 107.701 87.2469C103.268 85.0977 100.199 83.553 99.037 82.8881C94.4296 80.2687 92.0655 77.9584 90.0372 74.11C89.2179 72.5585 88.8955 72.0279 88.5597 71.6586C87.9888 71.0407 87.1157 70.772 86.3097 70.9802ZM87.0754 73.3376C87.1828 73.4719 87.4851 74.0428 87.7604 74.5935C89.0029 77.0785 90.1648 78.7307 91.8305 80.3963C94.2013 82.7672 97.0758 84.5604 103.591 87.7103C107.446 89.5774 111.066 91.4109 112.456 92.2035C119.481 96.213 123.86 100.391 126.177 105.314C127.023 107.127 127.682 109.081 128.004 110.76C128.313 112.413 128.407 113.984 128.508 119.444C128.608 124.562 128.669 125.845 128.857 126.329C128.964 126.59 128.998 126.873 128.991 127.511C128.985 128.303 128.494 134.401 128.38 135.086C128.333 135.369 128.326 135.348 128.192 134.663C127.614 131.446 125.546 126.235 123.383 122.5C122.221 120.506 120.636 118.262 118.977 116.268C117.983 115.065 115.196 112.278 113.967 111.237C106.855 105.233 99.2116 101.841 86.8202 99.1816C85.8329 98.9667 83.9591 98.5704 82.6561 98.2951C76.7996 97.0458 74.0929 96.1727 70.7953 94.4803C68.6125 93.3452 66.685 92.0893 64.7574 90.5445C63.7433 89.7386 62.2926 88.3215 62.1179 87.9857C61.9433 87.6431 61.6142 87.8312 67.3969 85.0104C72.0512 82.7403 77.2966 79.5501 82.6158 75.7689C85.3762 73.8145 86.4844 73.1025 86.8 73.0891C86.8538 73.0891 86.9746 73.21 87.0754 73.3376ZM194.246 88.1536C194.501 88.3215 195.354 88.9797 196.153 89.611C203.044 95.1049 207.994 98.3354 213.105 100.652C214.563 101.317 217.712 102.6 219.17 103.124C219.62 103.278 219.989 103.433 219.989 103.467C219.989 103.621 216.591 104.776 214.401 105.367C208.055 107.107 201.076 107.812 187.248 108.121C176.455 108.363 171.055 108.786 165.333 109.854C158.381 111.143 153.291 113.131 147.481 116.818C144.492 118.719 141.967 120.64 138.918 123.34C135.815 126.08 133.834 128.202 131.087 131.735C130.489 132.501 129.992 133.119 129.985 133.112C129.979 133.105 130.019 132.85 130.086 132.561C130.845 128.928 131.483 124.079 132.215 116.194C132.699 111.076 132.961 109.384 133.585 107.496C135.419 101.895 139.045 99.7928 149.321 98.3421C153.532 97.7443 157.105 97.4824 164.265 97.2608C171.465 97.0324 175.179 96.6832 179.423 95.8033C183.305 94.9974 185.931 94.0168 188.557 92.3982C190.196 91.3774 191.546 90.2155 192.802 88.7245C193.205 88.2476 193.601 87.8513 193.668 87.8513C193.736 87.8513 193.998 87.9924 194.246 88.1536ZM60.7344 94.5138C61.003 94.6414 61.7284 95.0511 62.353 95.4272C65.5835 97.3749 68.2431 98.5368 71.937 99.6047C75.181 100.538 77.4242 100.901 84.5299 101.7C89.8828 102.298 91.4745 102.533 93.6304 103.077C94.8662 103.386 95.746 103.702 98.0631 104.675C99.6414 105.334 100.172 105.522 100.447 105.522C100.85 105.522 101.643 105.851 103.664 106.858C110.75 110.404 116.647 115.63 121.066 122.272C122.786 124.858 124.371 127.86 125.909 131.413C126.681 133.213 127.332 134.818 127.252 134.731C127.232 134.71 126.815 134.106 126.345 133.394C125.237 131.735 123.867 129.861 122.544 128.209C115.989 120.009 108.352 115.012 98.5265 112.493C95.6654 111.754 92.717 111.298 88.8485 110.975C86.8202 110.807 78.895 110.787 76.1548 110.935C75.1877 110.989 72.6557 111.136 70.5334 111.257C68.4043 111.385 65.8924 111.526 64.9455 111.58C63.938 111.633 61.3724 111.674 58.7531 111.68C55.0793 111.68 53.9913 111.66 52.7085 111.539C47.2415 111.063 43.1916 110.122 38.3291 108.175C36.7239 107.543 34.1583 106.301 34.1785 106.18C34.1919 106.086 34.9777 105.777 37.5634 104.817C45.1595 102.029 49.7937 99.7995 56.1606 95.9108C58.2964 94.5944 58.5248 94.4735 59.0822 94.3191C59.6061 94.1713 60.1232 94.2318 60.7344 94.5138ZM210.654 109.202C211.735 109.914 219.486 114.293 221.709 115.448C222.844 116.039 224.771 117.04 225.994 117.685C229.211 119.357 234.127 121.809 236.202 122.762C238.425 123.797 242.065 125.583 242.314 125.778L242.495 125.919L241.622 126.161C239.715 126.691 237.458 127.148 235.591 127.376C234.053 127.558 230.856 127.558 229.318 127.376C225.664 126.926 221.722 125.805 215.51 123.461C210.358 121.506 209.68 121.265 207.692 120.559C198.894 117.47 191.425 115.925 183.117 115.468C181.297 115.368 176.603 115.368 174.782 115.468C169.45 115.757 163.976 116.624 159.516 117.873C152.726 119.78 146.467 122.796 140.248 127.155C137.541 129.049 135.472 130.647 133.236 132.575C132.484 133.219 131.873 133.73 131.873 133.71C131.873 133.649 133.619 131.48 134.405 130.573C137.917 126.49 143.142 122.03 148.052 118.907C154.123 115.059 159.315 113.057 166.448 111.842C171.767 110.928 176.253 110.599 186.522 110.378C193.574 110.23 196.113 110.129 200.136 109.847C203.387 109.605 207.464 109.142 209.317 108.779C209.613 108.725 209.888 108.705 209.928 108.725C209.975 108.752 210.298 108.967 210.654 109.202ZM41.1029 111.412C47.5639 113.548 54.1525 114.212 64.4888 113.776C65.476 113.736 68.3371 113.588 70.8356 113.44C78.2234 113.01 78.8749 112.99 82.9583 112.99C87.6463 112.99 89.8559 113.118 93.2476 113.601C100.541 114.636 107.338 117.302 112.738 121.251C113.369 121.715 113.625 121.929 113.248 121.701C111.811 120.788 109.192 119.411 107.553 118.692C104.249 117.262 100.259 116.207 95.6587 115.549C88.056 114.461 81.0644 114.548 72.7094 115.818C68.1894 116.509 64.2201 117.295 55.1196 119.297C45.361 121.453 42.0096 122.117 36.8784 122.917C28.913 124.166 23.6273 124.26 17.6029 123.293L16.3402 123.085L16.6827 122.991C16.8775 122.937 17.7439 122.702 18.6237 122.467C24.7892 120.808 31.042 118.094 35.4344 115.193C37.503 113.823 40.0149 111.633 40.0149 111.197C40.0149 111.063 40.0887 111.076 41.1029 111.412ZM89.4596 117.074C93.9595 117.336 98.4124 117.98 101.891 118.88C107.761 120.398 113.531 123.508 119.078 128.149C120.374 129.237 123.994 132.487 123.994 132.568C123.994 132.595 123.699 132.36 123.336 132.057C121.697 130.687 118.662 128.538 116.573 127.269C110.078 123.32 101.858 120.123 93.4021 118.256C91.0984 117.752 88.5194 117.356 85.5239 117.047C84.8859 116.98 88.2843 117.006 89.4596 117.074ZM183.614 117.913C192.211 118.551 199.196 120.062 208.37 123.3C209.149 123.575 211.332 124.367 213.219 125.066C221.124 127.994 224.812 129.055 228.895 129.593C229.741 129.7 230.493 129.734 232.414 129.734C234.335 129.734 235.094 129.7 235.934 129.593C238.721 129.223 242.126 128.431 243.879 127.732L244.564 127.457L244.705 127.638C245.014 128.041 245.645 129.391 246.458 131.386C249.198 138.142 250.575 140.862 252.677 143.643C253.208 144.341 253.194 144.362 252.61 144.227C251.26 143.912 247.627 143.73 237.881 143.502C232.253 143.368 230.943 143.321 222.703 142.965C199.632 141.971 185.36 141.642 168.241 141.722C151.591 141.809 143.747 142.105 138.448 142.85C137.884 142.924 137.393 142.971 137.373 142.938C137.34 142.911 137.279 142.75 137.225 142.582C137.172 142.414 137.004 142.031 136.863 141.742C136.48 140.99 135.244 139.774 134.19 139.103C133.76 138.827 133.411 138.579 133.404 138.552C133.404 138.518 133.619 138.371 133.887 138.216C134.143 138.062 135.157 137.404 136.117 136.759C138.213 135.375 139.677 134.529 142.195 133.26C150.698 128.968 158.569 126.456 166.521 125.489C174.789 124.482 182.956 124.918 192.527 126.873C199.424 128.276 204.683 129.714 211.802 132.138C221.178 135.335 220.829 135.221 223.616 135.926C228.223 137.095 231.017 137.464 234.248 137.343C235.316 137.296 235.652 137.256 236.108 137.115C236.41 137.014 236.659 136.907 236.659 136.88C236.659 136.739 235.564 136.41 234.617 136.262C233.24 136.054 231.864 135.772 229.473 135.214C228.398 134.966 227.021 134.643 226.41 134.509C223.354 133.844 221.38 133.28 217.612 131.99C207.282 128.437 205.63 127.92 200.747 126.671C194.239 125.005 187.906 123.844 182.889 123.394C180.451 123.165 178.772 123.098 175.964 123.098C166.072 123.098 157.717 124.831 148.737 128.726C146.796 129.579 142.981 131.466 141.436 132.353C138.186 134.213 135.828 135.879 134.042 137.585C133.578 138.048 133.175 138.411 133.149 138.411C133.128 138.411 132.84 138.25 132.511 138.062C132.181 137.86 131.436 137.457 130.858 137.148L129.791 136.591L131.47 135.738C141.719 130.466 143.626 129.539 147.891 127.826C156.313 124.421 163.607 122.514 170.652 121.856C173.15 121.62 174.111 121.58 177.382 121.533C186.207 121.419 192.896 122.212 200.774 124.341C205.482 125.617 208.558 126.718 214.401 129.237C219.734 131.534 223.2 132.649 225.832 132.897C227.169 133.025 228.532 133.004 228.915 132.843C229.096 132.776 229.244 132.689 229.244 132.662C229.244 132.628 229.123 132.514 228.982 132.393C228.808 132.252 228.109 131.977 226.967 131.594C219.311 129.002 218.975 128.881 215.362 127.336C208.948 124.616 205.133 123.306 199.525 121.929C192.815 120.284 187.322 119.585 179.907 119.465C171.68 119.337 165.131 120.176 157.804 122.312C152.491 123.857 146.225 126.409 141.356 128.995C140.147 129.64 137.581 131.077 136.943 131.466C136.809 131.554 136.695 131.594 136.695 131.574C136.695 131.513 140.63 128.921 142.276 127.893C150.127 123.017 157.28 120.23 165.568 118.833C168.577 118.316 171.465 118 174.473 117.839C176.106 117.752 182.13 117.799 183.614 117.913ZM83.7844 119.216C90.6283 119.626 98.0363 121.345 105.793 124.341C108.977 125.563 113.363 127.638 116.157 129.243C119.139 130.949 122.927 133.454 126.211 135.879L126.788 136.309L125.143 137.914C124.028 139.002 123.135 139.788 122.389 140.352C121.778 140.822 121.086 141.366 120.851 141.561L120.421 141.93L119.662 141.816C116.956 141.42 111.509 141.05 104.914 140.822C103.02 140.762 99.9907 140.654 98.1773 140.587C96.3773 140.527 92.0655 140.446 88.6201 140.426C82.5016 140.379 79.2779 140.419 68.0416 140.668C51.1302 141.044 48.0676 141.024 25.0176 140.399C18.3954 140.224 10.3292 140.144 8.49567 140.231C5.90321 140.365 4.22415 140.601 3.03538 141.01C2.78688 141.098 2.55853 141.165 2.51823 141.165C2.42421 141.165 2.96822 140.117 3.58611 139.096C3.88162 138.613 4.95622 136.873 5.99052 135.241C8.49566 131.238 9.39564 129.7 11.6724 125.408C12.0418 124.717 12.3508 124.132 12.3709 124.119C12.3844 124.099 12.4582 124.139 12.5321 124.2C13.2709 124.851 16.5081 125.523 21.1221 125.999C23.0363 126.194 28.4563 126.194 30.3771 125.999C34.521 125.57 39.1015 124.864 44.1319 123.87C45.1998 123.655 46.0863 123.508 46.0998 123.521C46.1132 123.535 45.5557 123.709 44.8505 123.917C44.1386 124.119 42.9163 124.508 42.1305 124.777C39.894 125.529 34.971 127.544 34.5076 127.887C34.3867 127.981 34.1516 128.149 33.977 128.276C33.8091 128.397 33.668 128.531 33.6613 128.558C33.6613 128.619 34.38 128.666 34.9374 128.639C35.3605 128.619 38.9537 127.867 40.7402 127.43C42.473 126.993 44.8304 126.342 48.9609 125.14C63.1388 121.009 69.6065 119.626 76.5309 119.223C78.1227 119.129 82.28 119.129 83.7844 119.216ZM46.4154 123.467C46.3886 123.488 46.3214 123.494 46.2677 123.474C46.2072 123.454 46.2274 123.427 46.3147 123.427C46.3953 123.42 46.4423 123.441 46.4154 123.467ZM128.602 138.344C130.173 139.136 133.128 141.024 133.928 141.756L134.425 142.199L133.78 142.246C133.364 142.273 132.927 142.367 132.564 142.501C129.656 143.569 128.904 143.764 127.742 143.764C126.768 143.764 126.244 143.643 125.371 143.213C124.921 142.991 124.585 142.763 124.263 142.441L123.813 141.991L123.994 141.836C124.78 141.218 125.66 140.392 126.453 139.539C127.42 138.478 127.863 138.028 127.937 138.028C127.957 138.028 128.252 138.169 128.602 138.344ZM18.6304 142.77C20.2289 142.817 23.9161 142.918 26.8175 142.998C43.6551 143.482 43.9909 143.488 50.4116 143.488C56.4965 143.488 59.1762 143.448 69.6132 143.193C72.1117 143.133 75.866 143.038 77.9481 142.991C83.2136 142.864 92.8648 142.864 103.114 142.991C107.889 143.052 113.564 143.086 115.72 143.065C119.32 143.025 119.642 143.032 119.589 143.146C119.152 144.133 119.145 144.926 119.548 145.799C119.689 146.094 119.851 146.39 119.918 146.457C120.119 146.672 119.407 146.665 103.04 146.289C99.3996 146.209 93.9259 146.068 90.8768 145.987C87.8209 145.9 83.5091 145.799 81.2793 145.752C72.7833 145.584 69.6132 145.517 66.0201 145.409C57.0606 145.134 49.3504 145.08 38.7119 145.221C35.5754 145.255 31.6868 145.349 30.0681 145.409C18.3282 145.886 9.86577 145.409 5.48008 144.026C4.77488 143.804 3.83461 143.394 3.83461 143.3C3.83461 143.133 6.03081 142.803 7.83076 142.696C9.12699 142.629 14.1977 142.656 18.6304 142.77ZM123.256 144.536C125.029 145.879 127.144 146.336 129.388 145.873C130.146 145.712 131.382 145.322 132.652 144.832C133.189 144.624 133.733 144.456 133.854 144.456C134.284 144.456 134.646 145.114 134.66 145.9C134.666 146.296 134.66 146.323 134.284 146.645C132.638 148.096 129.32 148.418 125.768 147.478C123.612 146.9 121.879 145.846 121.509 144.885C121.389 144.563 121.389 144.529 121.523 144.221C121.61 144.032 121.771 143.764 121.892 143.63L122.1 143.381L122.376 143.73C122.524 143.925 122.913 144.288 123.256 144.536ZM138.448 143.616C139.395 143.724 142.168 143.818 147.743 143.952C150.436 144.019 153.23 144.086 153.942 144.113C154.661 144.133 159.422 144.187 164.533 144.227C186.677 144.409 199.075 144.677 222.394 145.49C232.146 145.826 232.045 145.826 238.076 145.906C248.479 146.061 251.092 146.188 252.838 146.645C253.409 146.793 254.309 147.209 254.544 147.438L254.719 147.606L254.558 147.78C254.215 148.15 253.275 148.492 252.187 148.653C250.817 148.861 246.431 148.915 238.687 148.821C230.896 148.727 229.701 148.707 221.783 148.432C211.547 148.082 206.329 148.056 189.699 148.277C181.331 148.391 170.592 148.297 155.964 147.975C141.88 147.659 137.071 147.27 137.071 146.423C137.071 146.329 137.145 145.98 137.225 145.638C137.313 145.302 137.4 144.691 137.434 144.281C137.487 143.421 137.387 143.488 138.448 143.616Z" fill="#8B6E6E"/>
</g>
<path d="M173.3 129.061C167.295 129.405 161.833 130.296 155.72 131.936C149.809 133.53 145.395 135.163 140.982 137.384C139.847 137.951 138.416 138.781 138.416 138.862C138.416 138.903 138.429 138.937 138.45 138.937C138.537 138.937 140.599 138.167 141.896 137.64C144.972 136.412 147.552 135.534 150.924 134.61C156.923 132.936 162.948 131.747 167.906 131.248C170.579 130.978 171.506 130.931 174.791 130.883C179.554 130.823 181.408 130.937 189.099 131.788C196.825 132.638 196.945 132.645 197.92 132.584C198.712 132.537 198.961 132.463 198.645 132.348C198.571 132.321 198.249 132.193 197.933 132.044C196.979 131.626 191.383 130.316 188.448 129.83C184.988 129.257 182.59 129.088 177.7 129.054C175.557 129.047 173.575 129.047 173.3 129.061Z" fill="#8B6E6E"/>
<path d="M176.861 135.87C169.239 136.109 159.534 136.796 152.215 137.617C147.443 138.147 141.979 139.103 142.059 139.394C142.073 139.476 144.029 139.476 144.634 139.402C144.802 139.372 146.179 139.297 147.698 139.23C149.211 139.155 152.349 138.999 154.661 138.887C171.914 138.028 173.809 137.983 190.39 137.998C198.952 137.998 204.403 137.968 204.665 137.923C204.914 137.878 205.317 137.811 205.586 137.781C205.848 137.751 206.063 137.692 206.063 137.654C206.063 137.625 205.902 137.565 205.7 137.527C205.492 137.498 205.001 137.378 204.605 137.266C203.556 136.975 197.648 136.34 192.782 135.989C190.531 135.825 180.591 135.758 176.861 135.87Z" fill="#8B6E6E"/>
<path d="M81.3795 121.263C80.5477 121.344 79.0372 121.553 77.7863 121.761C75.9364 122.078 72.4031 122.812 71.944 122.987C71.0656 123.297 70.8061 123.411 70.7728 123.485C70.6863 123.66 72.0837 123.674 73.9934 123.519C78.8642 123.128 80.1152 123.054 81.9451 123.007C87.6809 122.879 94.4947 123.957 100.51 125.95C105.634 127.647 113.399 131.02 119.341 134.144C121.271 135.148 121.703 135.35 121.763 135.282C121.783 135.262 121.564 134.999 121.264 134.717C120.625 134.097 118.41 132.589 116.58 131.525C112.594 129.215 106.505 126.367 102.027 124.711C97.4225 123.007 92.4719 121.91 87.1286 121.411C85.9375 121.297 82.0915 121.203 81.3795 121.263Z" fill="#8B6E6E"/>
<path d="M71.3734 125.479C67.8398 125.676 63.171 126.26 59.3217 126.987C57.7229 127.286 56.1778 127.625 53.2354 128.325C50.5079 128.963 46.9274 129.785 44.4082 130.342C41.58 130.96 40.4716 131.259 37.368 132.223C35.9371 132.671 34.5599 133.099 34.3046 133.167C33.7605 133.323 32.7125 133.887 32.7864 133.989C32.8066 134.023 32.8469 134.05 32.8738 134.023C32.9073 134.009 33.1492 134.023 33.4246 134.064C34.9092 134.247 43.1049 132.705 53.9676 130.186C59.1067 128.997 61.5654 128.542 65.5961 128.033C69.7611 127.503 72.1661 127.374 76.4252 127.428C79.6228 127.476 80.5365 127.524 83.1161 127.761C89.6458 128.352 97.8079 130.288 106.528 133.289C111.25 134.913 113.695 135.945 117.605 137.962C118.72 138.539 119.654 138.981 119.681 138.933C119.775 138.784 116.671 136.678 114.676 135.537C109.618 132.685 101.388 129.602 93.5421 127.639C88.4097 126.342 84.3454 125.744 79.0317 125.473C77.2515 125.384 73.0193 125.384 71.3734 125.479Z" fill="#8B6E6E"/>
<path d="M72.1468 133.253C69.7164 133.428 64.0076 134.224 63.1391 134.503C62.4188 134.741 62.4053 134.748 62.4659 134.811C62.7756 135.132 65.5627 135.237 69.9251 135.076C76.4688 134.839 83.302 135.014 89.0917 135.558C95.5613 136.18 100.092 136.83 109.564 138.458C113.233 139.094 115.576 139.457 115.953 139.457C116 139.457 116.041 139.429 116.041 139.387C116.041 139.115 108.75 137.235 103.579 136.159C96.6586 134.727 88.9436 133.7 82.3056 133.337C80.2725 133.225 73.372 133.169 72.1468 133.253Z" fill="#8B6E6E"/>
<path d="M13.9442 136.367C13.7167 136.396 13.5293 136.444 13.5293 136.479C13.5293 136.568 14.2319 136.769 14.8208 136.852C17.183 137.183 27.1538 137.874 33.6449 138.164C40.9858 138.489 50.6421 138.501 54.5635 138.193C57.1734 137.987 59.0404 137.703 59.3147 137.46C59.3549 137.431 59.201 137.366 58.9735 137.319C58.6389 137.236 57.0194 137.23 49.7254 137.242C38.7708 137.271 36.335 137.218 25.414 136.716C17.7318 136.367 14.8141 136.278 13.9442 136.367Z" fill="#8B6E6E"/>
<path d="M66.3672 137.393C66.0474 137.438 65.9874 137.549 66.2539 137.615C66.5404 137.697 69.845 138.082 71.3906 138.216C72.7031 138.334 75.0949 138.482 80.0051 138.779C80.8379 138.831 83.5895 138.89 86.1278 138.912C90.3118 138.957 90.7982 138.949 91.4245 138.816C91.7975 138.727 92.104 138.638 92.104 138.608C92.104 138.527 90.8248 138.282 90.092 138.23C89.7589 138.208 88.3398 138.09 86.9473 137.971C83.4362 137.682 81.5508 137.608 75.6412 137.504C72.8231 137.46 69.6451 137.415 68.5858 137.386C67.5198 137.371 66.5204 137.371 66.3672 137.393Z" fill="#8B6E6E"/>
<mask id="mask1_18_305" style="mask-type:luminance" maskUnits="userSpaceOnUse" x="60" y="0" width="98" height="85">
<path d="M60.8823 0H157.012V84.2482H60.8823V0Z" fill="white"/>
</mask>
<g mask="url(#mask1_18_305)">
<path d="M148.307 12.8817L143.236 10.7728L146.917 6.80352C150.04 6.82367 152.39 7.97886 153.727 8.85196C151.417 9.88626 149.308 11.6258 148.307 12.8817ZM138.871 48.2426C129.77 57.4908 115.33 56.8998 105.787 56.5102C101.878 56.3423 98.7815 56.2214 96.7801 56.7251C88.3848 58.8878 73.1995 74.2746 67.0541 80.7961C66.1877 81.7229 64.6497 81.1789 64.502 79.9431C64.3945 78.9961 63.8371 79.9095 77.5919 64.9391C79.4657 62.9041 81.138 60.7146 82.629 58.4042C113.275 49.9754 114.229 42.6815 114.927 37.3354C115.196 35.24 115.364 33.9706 117.553 32.99C124.511 29.8469 128.427 24.6687 129.891 22.3986C135.163 27.7984 142.309 32.399 147.481 26.8984C146.514 36.234 143.646 43.3935 138.871 48.2426ZM121.858 65.8391L120.683 68.3308L118.077 67.3233L114.148 58.5654C115.478 58.5452 116.828 58.4915 118.198 58.3841L121.858 65.8391ZM131.389 4.31852C136.298 2.33052 141.537 2.45141 145.217 5.86325L140.012 11.4646L147.729 14.6884C147.877 17.6099 147.891 20.3837 147.776 23.0097C147.494 23.6948 146.104 26.7305 143.122 27.3484C138.32 28.3491 132.792 22.768 129.495 19.2285C126.54 24.8567 121.845 28.9872 116.781 31.264C113.624 32.6811 113.342 34.931 113.054 37.0937C112.476 41.5398 111.603 48.1821 84.0596 56.0468C89.3587 46.6575 98.5868 17.6569 131.389 4.31852ZM146.923 4.90955C145.56 3.526 139.986 -1.20221 130.684 2.5723C128.299 3.53944 124.814 5.33938 120.314 7.90498C103.026 17.7778 92.5355 33.0438 84.3081 51.3992C80.4866 59.8616 76.8934 62.9108 63.4945 77.4917C60.4991 80.7491 65.3952 85.3094 68.431 82.0856C73.1323 77.0954 89.1169 60.6541 97.2502 58.5587C98.983 58.1154 102.099 58.243 105.706 58.3975C107.667 58.4714 109.816 58.5587 112.086 58.5721L116.351 68.0957C114.142 73.7105 113.537 74.4492 114.692 74.8992C115.176 75.094 115.727 74.8522 115.915 74.3686L117.909 69.2845L119.877 70.0367C119.407 71.0374 118.709 72.0516 119.743 72.5351C120.213 72.7568 120.77 72.5553 120.992 72.0851L123.383 67.0413C123.658 67.1554 128.138 69.0091 128.434 69.0091C129.468 69.0091 129.75 67.5786 128.79 67.1957L123.591 65.0868L120.213 58.2027C143.874 55.6438 150.906 38.222 149.596 14.2518C150.147 13.5332 152.74 10.9206 155.91 10.0676L157.481 9.63776C154.701 6.85053 151.652 4.94984 146.923 4.90955Z" fill="#8B6E6E"/>
</g>
<path d="M133.535 11.1889C133.535 8.76529 129.893 8.75276 129.893 11.1889C129.893 13.6126 133.535 13.6189 133.535 11.1889Z" fill="#8B6E6E"/>
<mask id="mask2_18_305" style="mask-type:luminance" maskUnits="userSpaceOnUse" x="170" y="65" width="10" height="8">
<path d="M170.921 65.3354H179.518V72.2128H170.921V65.3354Z" fill="white"/>
</mask>
<g mask="url(#mask2_18_305)">
<mask id="mask3_18_305" style="mask-type:luminance" maskUnits="userSpaceOnUse" x="84" y="22" width="147" height="73">
<path d="M84.416 54.1394L220.648 22.3382L230.084 62.7698L93.8523 94.5711L84.416 54.1394Z" fill="white"/>
</mask>
<g mask="url(#mask3_18_305)">
<mask id="mask4_18_305" style="mask-type:luminance" maskUnits="userSpaceOnUse" x="84" y="22" width="147" height="73">
<path d="M84.416 54.1394L220.648 22.3382L230.084 62.7698L93.8523 94.5711L84.416 54.1394Z" fill="white"/>
</mask>
<g mask="url(#mask4_18_305)">
<path d="M178.9 71.1986C178.9 71.1986 178.913 70.3591 178.517 69.3114C178.148 68.2704 177.295 67.0413 176.227 66.5242C175.172 66.0003 174.165 65.8458 173.453 66.007C172.728 66.1682 172.305 66.6249 172.224 67.3032C172.076 68.7204 173.077 69.3248 174.474 70.03C175.186 70.3725 176.227 70.5069 177.167 70.7352C178.107 70.9367 178.9 71.1986 178.9 71.1986Z" fill="#8B6E6E"/>
</g>
</g>
</g>
<mask id="mask5_18_305" style="mask-type:luminance" maskUnits="userSpaceOnUse" x="200" y="41" width="8" height="6">
<path d="M200.15 41.2645H207.027V46.4225H200.15V41.2645Z" fill="white"/>
</mask>
<g mask="url(#mask5_18_305)">
<mask id="mask6_18_305" style="mask-type:luminance" maskUnits="userSpaceOnUse" x="84" y="22" width="147" height="73">
<path d="M84.416 54.1394L220.648 22.3382L230.084 62.7698L93.8523 94.5711L84.416 54.1394Z" fill="white"/>
</mask>
<g mask="url(#mask6_18_305)">
<mask id="mask7_18_305" style="mask-type:luminance" maskUnits="userSpaceOnUse" x="84" y="22" width="147" height="73">
<path d="M84.416 54.1394L220.648 22.3382L230.084 62.7698L93.8523 94.5711L84.416 54.1394Z" fill="white"/>
</mask>
<g mask="url(#mask7_18_305)">
<path d="M206.732 45.2405C206.732 45.2405 205.98 45.3815 205.154 45.6166C204.314 45.8315 203.461 46.1472 202.836 46.0666C202.212 45.9793 201.695 45.8382 201.272 45.5226C200.855 45.2136 200.526 44.7368 200.398 43.9913C200.278 43.2525 200.486 42.6615 201.03 42.2786C201.56 41.8958 202.42 41.7212 203.414 41.8622C204.422 41.9898 205.436 42.8428 205.986 43.6622C206.557 44.4883 206.732 45.2405 206.732 45.2405Z" fill="#8B6E6E"/>
</g>
</g>
</g>
<mask id="mask8_18_305" style="mask-type:luminance" maskUnits="userSpaceOnUse" x="220" y="48" width="8" height="6">
<path d="M220.782 48.1419H227.659V53.2999H220.782V48.1419Z" fill="white"/>
</mask>
<g mask="url(#mask8_18_305)">
<mask id="mask9_18_305" style="mask-type:luminance" maskUnits="userSpaceOnUse" x="84" y="22" width="147" height="73">
<path d="M84.4155 54.1394L220.647 22.3382L230.084 62.7698L93.8518 94.5711L84.4155 54.1394Z" fill="white"/>
</mask>
<g mask="url(#mask9_18_305)">
<mask id="mask10_18_305" style="mask-type:luminance" maskUnits="userSpaceOnUse" x="84" y="22" width="147" height="73">
<path d="M84.4155 54.1394L220.647 22.3382L230.084 62.7698L93.8518 94.5711L84.4155 54.1394Z" fill="white"/>
</mask>
<g mask="url(#mask10_18_305)">
<mask id="mask11_18_305" style="mask-type:luminance" maskUnits="userSpaceOnUse" x="220" y="47" width="8" height="6">
<path d="M220.479 49.0217L226.799 47.5441L227.706 51.4462L221.386 52.9238L220.479 49.0217Z" fill="white"/>
</mask>
<g mask="url(#mask11_18_305)">
<path d="M227.431 50.2642C227.431 50.2642 226.786 50.6671 226.108 51.0903C225.396 51.5335 224.637 52.0507 223.979 52.1649C222.662 52.3798 221.641 52.2656 221.091 51.0097C220.54 49.7873 221.494 48.7127 223.361 48.4038C224.288 48.2426 225.423 48.6657 226.195 49.1829C226.981 49.6933 227.431 50.2642 227.431 50.2642Z" fill="#8B6E6E"/>
</g>
</g>
</g>
</g>
<mask id="mask12_18_305" style="mask-type:luminance" maskUnits="userSpaceOnUse" x="213" y="53" width="10" height="9">
<path d="M213.905 53.2999H222.502V61.8967H213.905V53.2999Z" fill="white"/>
</mask>
<g mask="url(#mask12_18_305)">
<mask id="mask13_18_305" style="mask-type:luminance" maskUnits="userSpaceOnUse" x="84" y="22" width="147" height="73">
<path d="M84.416 54.1394L220.648 22.3382L230.084 62.7698L93.8523 94.5711L84.416 54.1394Z" fill="white"/>
</mask>
<g mask="url(#mask13_18_305)">
<mask id="mask14_18_305" style="mask-type:luminance" maskUnits="userSpaceOnUse" x="84" y="22" width="147" height="73">
<path d="M84.416 54.1394L220.648 22.3382L230.084 62.7698L93.8523 94.5711L84.416 54.1394Z" fill="white"/>
</mask>
<g mask="url(#mask14_18_305)">
<path d="M221.414 60.2445C221.414 60.2445 220.628 59.8549 219.688 59.5057C218.734 59.1296 217.673 58.8341 216.988 58.3706C215.631 57.4304 214.684 56.6446 215.047 55.2006C215.235 54.5021 215.738 54.0857 216.518 54.032C217.29 53.9715 218.311 54.2805 219.325 54.9857C220.359 55.6774 221.071 57.0878 221.299 58.2296C221.427 58.8005 221.454 59.3109 221.447 59.6669C221.44 60.0296 221.414 60.2445 221.414 60.2445Z" fill="#8B6E6E"/>
</g>
</g>
</g>
<mask id="mask15_18_305" style="mask-type:luminance" maskUnits="userSpaceOnUse" x="215" y="41" width="10" height="8">
<path d="M215.624 41.2645H224.221V48.1419H215.624V41.2645Z" fill="white"/>
</mask>
<g mask="url(#mask15_18_305)">
<mask id="mask16_18_305" style="mask-type:luminance" maskUnits="userSpaceOnUse" x="84" y="22" width="147" height="73">
<path d="M84.4155 54.1394L220.647 22.3382L230.084 62.7698L93.8518 94.5711L84.4155 54.1394Z" fill="white"/>
</mask>
<g mask="url(#mask16_18_305)">
<mask id="mask17_18_305" style="mask-type:luminance" maskUnits="userSpaceOnUse" x="84" y="22" width="147" height="73">
<path d="M84.4155 54.1394L220.647 22.3382L230.084 62.7698L93.8518 94.5711L84.4155 54.1394Z" fill="white"/>
</mask>
<g mask="url(#mask17_18_305)">
<path d="M223.777 42.7152C223.777 42.7152 223.126 43.2995 222.441 44.0383C221.735 44.7771 221.057 45.6502 220.372 46.1136C218.988 47.0068 217.907 47.5911 216.705 46.7113C216.127 46.2681 215.939 45.6434 216.181 44.9047C216.416 44.1726 217.088 43.3331 218.122 42.6614C219.156 41.9697 220.728 41.8421 221.87 42.0637C222.447 42.1644 222.931 42.3324 223.26 42.4667C223.596 42.6144 223.777 42.7152 223.777 42.7152Z" fill="#8B6E6E"/>
</g>
</g>
</g>
<mask id="mask18_18_305" style="mask-type:luminance" maskUnits="userSpaceOnUse" x="201" y="34" width="8" height="8">
<path d="M201.869 34.387H208.747V41.2644H201.869V34.387Z" fill="white"/>
</mask>
<g mask="url(#mask18_18_305)">
<mask id="mask19_18_305" style="mask-type:luminance" maskUnits="userSpaceOnUse" x="84" y="22" width="147" height="73">
<path d="M84.416 54.1394L220.648 22.3381L230.084 62.7697L93.8523 94.571L84.416 54.1394Z" fill="white"/>
</mask>
<g mask="url(#mask19_18_305)">
<mask id="mask20_18_305" style="mask-type:luminance" maskUnits="userSpaceOnUse" x="84" y="22" width="147" height="73">
<path d="M84.416 54.1394L220.648 22.3381L230.084 62.7697L93.8523 94.571L84.416 54.1394Z" fill="white"/>
</mask>
<g mask="url(#mask20_18_305)">
<path d="M207.263 34.4743C207.263 34.4743 207.679 35.1728 207.854 36.2273C208.042 37.2616 207.914 38.672 207.249 39.5518C206.611 40.4316 205.832 40.9756 205.147 41.1234C204.455 41.2711 203.871 41.0226 203.434 40.4182C202.984 39.807 202.904 39.2227 203.004 38.6787C203.105 38.128 203.407 37.6175 203.831 37.0399C204.247 36.4825 205.107 36.0123 205.866 35.4818C206.624 34.9781 207.263 34.4743 207.263 34.4743Z" fill="#8B6E6E"/>
</g>
</g>
</g>
<mask id="mask21_18_305" style="mask-type:luminance" maskUnits="userSpaceOnUse" x="162" y="37" width="8" height="12">
<path d="M162.324 37.8257H169.202V48.1419H162.324V37.8257Z" fill="white"/>
</mask>
<g mask="url(#mask21_18_305)">
<mask id="mask22_18_305" style="mask-type:luminance" maskUnits="userSpaceOnUse" x="84" y="22" width="147" height="73">
<path d="M84.416 54.1394L220.648 22.3382L230.084 62.7698L93.8523 94.5711L84.416 54.1394Z" fill="white"/>
</mask>
<g mask="url(#mask22_18_305)">
<mask id="mask23_18_305" style="mask-type:luminance" maskUnits="userSpaceOnUse" x="84" y="22" width="147" height="73">
<path d="M84.416 54.1394L220.648 22.3382L230.084 62.7698L93.8523 94.5711L84.416 54.1394Z" fill="white"/>
</mask>
<g mask="url(#mask23_18_305)">
<path d="M167.301 39.2832C167.301 39.2832 167.933 40.0488 168.329 41.2846C168.745 42.5003 168.846 44.2263 168.208 45.4084C167.597 46.5837 166.764 47.3762 165.958 47.6785C165.159 47.9874 164.407 47.7926 163.769 47.1412C163.117 46.483 162.909 45.7979 162.929 45.1196C162.956 44.4412 163.231 43.7696 163.628 43.004C164.031 42.2585 164.977 41.5264 165.804 40.754C166.623 40.0085 167.301 39.2832 167.301 39.2832Z" fill="#8B6E6E"/>
</g>
</g>
</g>
<mask id="mask24_18_305" style="mask-type:luminance" maskUnits="userSpaceOnUse" x="165" y="51" width="8" height="11">
<path d="M165.763 51.5805H172.64V61.8966H165.763V51.5805Z" fill="white"/>
</mask>
<g mask="url(#mask24_18_305)">
<mask id="mask25_18_305" style="mask-type:luminance" maskUnits="userSpaceOnUse" x="84" y="22" width="147" height="73">
<path d="M84.416 54.1394L220.648 22.3382L230.084 62.7698L93.8523 94.5711L84.416 54.1394Z" fill="white"/>
</mask>
<g mask="url(#mask25_18_305)">
<mask id="mask26_18_305" style="mask-type:luminance" maskUnits="userSpaceOnUse" x="84" y="22" width="147" height="73">
<path d="M84.416 54.1394L220.648 22.3382L230.084 62.7698L93.8523 94.5711L84.416 54.1394Z" fill="white"/>
</mask>
<g mask="url(#mask26_18_305)">
<path d="M171.727 53.2529C171.727 53.2529 172.238 54.0991 172.446 55.3887C172.681 56.6513 172.52 58.3707 171.714 59.4385C170.928 60.5131 169.988 61.178 169.148 61.3527C168.309 61.534 167.597 61.2318 167.059 60.493C166.515 59.7475 166.415 59.0356 166.535 58.3707C166.663 57.7058 167.032 57.0811 167.543 56.3827C168.053 55.7043 169.101 55.1267 170.028 54.482C170.955 53.8708 171.727 53.2529 171.727 53.2529Z" fill="#8B6E6E"/>
</g>
</g>
</g>
<mask id="mask27_18_305" style="mask-type:luminance" maskUnits="userSpaceOnUse" x="162" y="67" width="9" height="11">
<path d="M162.324 67.0547H170.921V77.3708H162.324V67.0547Z" fill="white"/>
</mask>
<g mask="url(#mask27_18_305)">
<mask id="mask28_18_305" style="mask-type:luminance" maskUnits="userSpaceOnUse" x="84" y="22" width="147" height="73">
<path d="M84.416 54.1394L220.648 22.3382L230.084 62.7698L93.8523 94.5711L84.416 54.1394Z" fill="white"/>
</mask>
<g mask="url(#mask28_18_305)">
<mask id="mask29_18_305" style="mask-type:luminance" maskUnits="userSpaceOnUse" x="84" y="22" width="147" height="73">
<path d="M84.416 54.1394L220.648 22.3382L230.084 62.7698L93.8523 94.5711L84.416 54.1394Z" fill="white"/>
</mask>
<g mask="url(#mask29_18_305)">
<mask id="mask30_18_305" style="mask-type:luminance" maskUnits="userSpaceOnUse" x="162" y="67" width="9" height="11">
<path d="M162.418 68.8412L168.181 67.498L170.297 76.5716L164.541 77.9148L162.418 68.8412Z" fill="white"/>
</mask>
<g mask="url(#mask30_18_305)">
<path d="M167.838 77.1492C167.838 77.1492 167.993 76.9611 168.234 76.6052C168.456 76.2425 168.738 75.7119 168.94 75.047C169.363 73.7306 169.329 71.8098 168.49 70.5606C167.69 69.3114 166.629 68.539 165.723 68.3375C164.809 68.1226 164.077 68.4584 163.593 69.2308C163.103 70.0166 163.063 70.7352 163.197 71.3867C163.338 72.0516 163.688 72.656 164.151 73.368C164.614 74.0597 165.588 74.7314 166.401 75.5373C166.804 75.9268 167.167 76.3298 167.422 76.6388C167.67 76.9477 167.838 77.1492 167.838 77.1492Z" fill="#8B6E6E"/>
</g>
</g>
</g>
</g>
<mask id="mask31_18_305" style="mask-type:luminance" maskUnits="userSpaceOnUse" x="193" y="42" width="8" height="8">
<path d="M193.272 42.9838H200.149V49.8612H193.272V42.9838Z" fill="white"/>
</mask>
<g mask="url(#mask31_18_305)">
<mask id="mask32_18_305" style="mask-type:luminance" maskUnits="userSpaceOnUse" x="84" y="22" width="147" height="73">
<path d="M84.4155 54.1394L220.647 22.3382L230.084 62.7698L93.8518 94.5711L84.4155 54.1394Z" fill="white"/>
</mask>
<g mask="url(#mask32_18_305)">
<mask id="mask33_18_305" style="mask-type:luminance" maskUnits="userSpaceOnUse" x="84" y="22" width="147" height="73">
<path d="M84.4155 54.1394L220.647 22.3382L230.084 62.7698L93.8518 94.5711L84.4155 54.1394Z" fill="white"/>
</mask>
<g mask="url(#mask33_18_305)">
<path d="M199.84 49.7202C199.84 49.7202 199.129 49.3038 198.269 48.9075C197.402 48.4911 196.429 48.1351 195.817 47.6583C195.2 47.1613 194.709 46.7247 194.4 46.2344C194.105 45.7442 193.977 45.2001 194.212 44.542C194.441 43.9039 194.944 43.548 195.676 43.5547C196.402 43.548 197.342 43.9106 198.249 44.636C199.169 45.3613 199.74 46.7314 199.874 47.8195C199.955 48.3635 199.941 48.8471 199.914 49.1829C199.881 49.5254 199.84 49.7202 199.84 49.7202Z" fill="#8B6E6E"/>
</g>
</g>
</g>
<mask id="mask34_18_305" style="mask-type:luminance" maskUnits="userSpaceOnUse" x="176" y="56" width="13" height="10">
<path d="M176.079 56.7386H188.115V65.3353H176.079V56.7386Z" fill="white"/>
</mask>
<g mask="url(#mask34_18_305)">
<mask id="mask35_18_305" style="mask-type:luminance" maskUnits="userSpaceOnUse" x="84" y="22" width="147" height="73">
<path d="M84.416 54.1394L220.648 22.3382L230.084 62.7698L93.8523 94.5711L84.416 54.1394Z" fill="white"/>
</mask>
<g mask="url(#mask35_18_305)">
<mask id="mask36_18_305" style="mask-type:luminance" maskUnits="userSpaceOnUse" x="84" y="22" width="147" height="73">
<path d="M84.416 54.1394L220.648 22.3382L230.084 62.7698L93.8523 94.5711L84.416 54.1394Z" fill="white"/>
</mask>
<g mask="url(#mask36_18_305)">
<path d="M187.987 62.7832C187.987 62.7832 187.906 62.5145 187.718 62.078C187.523 61.6482 187.201 61.0571 186.697 60.4594C185.73 59.2505 183.917 58.102 182.237 58.1087C180.572 58.0886 179.202 58.6057 178.456 59.3243C177.691 60.0497 177.55 60.9429 177.973 61.8631C178.409 62.8101 179.054 63.2869 179.746 63.569C180.451 63.8376 181.237 63.8847 182.184 63.8981C183.111 63.8914 184.34 63.3944 185.596 63.1324C186.214 62.9914 186.805 62.9041 187.255 62.8504C187.698 62.8101 187.987 62.7832 187.987 62.7832Z" fill="#8B6E6E"/>
</g>
</g>
</g>
<mask id="mask37_18_305" style="mask-type:luminance" maskUnits="userSpaceOnUse" x="194" y="25" width="8" height="12">
<path d="M194.992 25.7902H201.869V36.1063H194.992V25.7902Z" fill="white"/>
</mask>
<g mask="url(#mask37_18_305)">
<mask id="mask38_18_305" style="mask-type:luminance" maskUnits="userSpaceOnUse" x="84" y="22" width="147" height="73">
<path d="M84.416 54.1394L220.648 22.3381L230.084 62.7697L93.8523 94.571L84.416 54.1394Z" fill="white"/>
</mask>
<g mask="url(#mask38_18_305)">
<mask id="mask39_18_305" style="mask-type:luminance" maskUnits="userSpaceOnUse" x="84" y="22" width="147" height="73">
<path d="M84.416 54.1394L220.648 22.3381L230.084 62.7697L93.8523 94.571L84.416 54.1394Z" fill="white"/>
</mask>
<g mask="url(#mask39_18_305)">
<path d="M199.149 27.3618C199.149 27.3618 199.31 27.5163 199.559 27.8118C199.801 28.114 200.103 28.5708 200.351 29.1551C200.868 30.3035 201.023 32.043 200.392 33.2587C199.787 34.4676 198.907 35.2668 198.108 35.5489C197.295 35.831 196.604 35.5959 196.093 34.9512C195.569 34.2862 195.455 33.6415 195.516 33.0303C195.583 32.4191 195.838 31.8348 196.181 31.1431C196.53 30.4782 197.349 29.773 198.007 28.9603C198.336 28.564 198.619 28.1678 198.827 27.8655C199.021 27.5566 199.149 27.3618 199.149 27.3618Z" fill="#8B6E6E"/>
</g>
</g>
</g>
<mask id="mask40_18_305" style="mask-type:luminance" maskUnits="userSpaceOnUse" x="184" y="42" width="8" height="10">
<path d="M184.676 42.9838H191.553V51.5806H184.676V42.9838Z" fill="white"/>
</mask>
<g mask="url(#mask40_18_305)">
<mask id="mask41_18_305" style="mask-type:luminance" maskUnits="userSpaceOnUse" x="84" y="22" width="147" height="73">
<path d="M84.416 54.1394L220.648 22.3382L230.084 62.7698L93.8523 94.5711L84.416 54.1394Z" fill="white"/>
</mask>
<g mask="url(#mask41_18_305)">
<mask id="mask42_18_305" style="mask-type:luminance" maskUnits="userSpaceOnUse" x="84" y="22" width="147" height="73">
<path d="M84.416 54.1394L220.648 22.3382L230.084 62.7698L93.8523 94.5711L84.416 54.1394Z" fill="white"/>
</mask>
<g mask="url(#mask42_18_305)">
<path d="M190.734 50.5194C190.734 50.5194 190.042 50.0425 189.196 49.5791C188.35 49.0956 187.382 48.659 186.798 48.1284C186.214 47.5777 185.744 47.1008 185.475 46.5837C185.206 46.0665 185.119 45.5024 185.408 44.8509C185.69 44.2196 186.221 43.8972 186.966 43.9509C187.705 44.0047 188.632 44.4412 189.491 45.2472C190.378 46.0531 190.848 47.4837 190.909 48.5986C190.949 49.156 190.902 49.6396 190.848 49.9821C190.788 50.3246 190.734 50.5194 190.734 50.5194Z" fill="#8B6E6E"/>
</g>
</g>
</g>
<mask id="mask43_18_305" style="mask-type:luminance" maskUnits="userSpaceOnUse" x="186" y="30" width="8" height="12">
<path d="M186.395 30.9483H193.272V41.2645H186.395V30.9483Z" fill="white"/>
</mask>
<g mask="url(#mask43_18_305)">
<mask id="mask44_18_305" style="mask-type:luminance" maskUnits="userSpaceOnUse" x="84" y="22" width="147" height="73">
<path d="M84.416 54.1394L220.648 22.3382L230.084 62.7698L93.8523 94.5711L84.416 54.1394Z" fill="white"/>
</mask>
<g mask="url(#mask44_18_305)">
<mask id="mask45_18_305" style="mask-type:luminance" maskUnits="userSpaceOnUse" x="84" y="22" width="147" height="73">
<path d="M84.416 54.1394L220.648 22.3382L230.084 62.7698L93.8523 94.5711L84.416 54.1394Z" fill="white"/>
</mask>
<g mask="url(#mask45_18_305)">
<path d="M189.249 31.8416C189.249 31.8416 189.451 31.9424 189.773 32.164C190.089 32.3857 190.512 32.7349 190.908 33.2319C191.721 34.1923 192.359 35.8244 192.083 37.1609C191.842 38.4907 191.217 39.5048 190.525 39.9951C189.827 40.4921 189.088 40.4585 188.423 39.9817C187.731 39.4847 187.449 38.8937 187.335 38.2959C187.228 37.6915 187.315 37.0601 187.456 36.3012C187.604 35.5624 188.195 34.6557 188.598 33.6953C188.806 33.2252 188.974 32.7618 189.081 32.4125C189.182 32.07 189.249 31.8416 189.249 31.8416Z" fill="#8B6E6E"/>
</g>
</g>
</g>
<mask id="mask46_18_305" style="mask-type:luminance" maskUnits="userSpaceOnUse" x="179" y="36" width="6" height="7">
<path d="M179.518 36.1064H184.676V42.9838H179.518V36.1064Z" fill="white"/>
</mask>
<g mask="url(#mask46_18_305)">
<mask id="mask47_18_305" style="mask-type:luminance" maskUnits="userSpaceOnUse" x="84" y="22" width="147" height="73">
<path d="M84.4155 54.1394L220.647 22.3381L230.084 62.7697L93.8518 94.571L84.4155 54.1394Z" fill="white"/>
</mask>
<g mask="url(#mask47_18_305)">
<mask id="mask48_18_305" style="mask-type:luminance" maskUnits="userSpaceOnUse" x="84" y="22" width="147" height="73">
<path d="M84.4155 54.1394L220.647 22.3381L230.084 62.7697L93.8518 94.571L84.4155 54.1394Z" fill="white"/>
</mask>
<g mask="url(#mask48_18_305)">
<path d="M183.964 36.5026C183.964 36.5026 184.011 36.6839 184.071 37.013C184.118 37.3354 184.165 37.8056 184.132 38.3563C184.091 39.4443 183.668 40.8547 182.936 41.5532C182.231 42.2584 181.479 42.5338 180.928 42.4465C180.371 42.3524 180.035 41.9024 179.934 41.204C179.826 40.492 179.954 39.948 180.162 39.498C180.384 39.0481 180.706 38.6988 181.116 38.2958C181.519 37.913 182.197 37.6779 182.822 37.3018C183.131 37.1205 183.42 36.9257 183.628 36.7645C183.829 36.6034 183.964 36.5026 183.964 36.5026Z" fill="#8B6E6E"/>
</g>
</g>
</g>
<mask id="mask49_18_305" style="mask-type:luminance" maskUnits="userSpaceOnUse" x="203" y="55" width="11" height="9">
<path d="M203.588 55.0193H213.904V63.616H203.588V55.0193Z" fill="white"/>
</mask>
<g mask="url(#mask49_18_305)">
<mask id="mask50_18_305" style="mask-type:luminance" maskUnits="userSpaceOnUse" x="84" y="22" width="147" height="73">
<path d="M84.4155 54.1394L220.647 22.3382L230.084 62.7698L93.8518 94.5711L84.4155 54.1394Z" fill="white"/>
</mask>
<g mask="url(#mask50_18_305)">
<mask id="mask51_18_305" style="mask-type:luminance" maskUnits="userSpaceOnUse" x="84" y="22" width="147" height="73">
<path d="M84.4155 54.1394L220.647 22.3382L230.084 62.7698L93.8518 94.5711L84.4155 54.1394Z" fill="white"/>
</mask>
<g mask="url(#mask51_18_305)">
<path d="M212.406 63.0049C212.406 63.0049 211.486 62.481 210.371 61.984C209.257 61.4668 207.994 61.0303 207.201 60.4258C206.409 59.7945 205.764 59.2505 205.368 58.6259C204.972 58.0013 204.804 57.3028 205.092 56.4565C205.381 55.6305 206.019 55.167 206.96 55.1536C207.893 55.1402 209.102 55.5834 210.277 56.5103C211.473 57.4237 212.225 59.1699 212.42 60.5669C212.527 61.2654 212.521 61.8832 212.494 62.3131C212.453 62.7496 212.406 63.0049 212.406 63.0049Z" fill="#8B6E6E"/>
</g>
</g>
</g>
<mask id="mask52_18_305" style="mask-type:luminance" maskUnits="userSpaceOnUse" x="88" y="34" width="135" height="46">
<path d="M88.3921 34.387H222.501V79.0902H88.3921V34.387Z" fill="white"/>
</mask>
<g mask="url(#mask52_18_305)">
<mask id="mask53_18_305" style="mask-type:luminance" maskUnits="userSpaceOnUse" x="84" y="22" width="147" height="73">
<path d="M84.416 54.1394L220.648 22.3381L230.084 62.7697L93.8523 94.571L84.416 54.1394Z" fill="white"/>
</mask>
<g mask="url(#mask53_18_305)">
<mask id="mask54_18_305" style="mask-type:luminance" maskUnits="userSpaceOnUse" x="84" y="22" width="147" height="73">
<path d="M84.416 54.1394L220.648 22.3381L230.084 62.7697L93.8523 94.571L84.416 54.1394Z" fill="white"/>
</mask>
<g mask="url(#mask54_18_305)">
<path d="M220.803 51.2044C220.769 51.1775 220.628 51.3253 220.339 51.5604C220.057 51.7954 219.627 52.1111 219.023 52.3663C218.418 52.6282 217.653 52.8432 216.78 52.9305C215.9 53.0312 214.913 53.0111 213.845 52.9842C213.307 52.9708 212.757 52.9573 212.179 52.9775C211.608 52.9909 211.031 53.0379 210.446 53.0984C209.284 53.2327 208.109 53.4476 206.967 53.6894C204.778 54.1595 202.682 54.6834 200.869 54.9655C201.03 54.9118 201.191 54.8647 201.353 54.811C202.253 54.5289 203.099 54.2066 203.911 53.8842C205.537 53.2327 207.001 52.5342 208.297 51.8492C210.896 50.4858 212.884 49.2366 214.234 48.3567C215.584 47.4702 216.296 46.9329 216.242 46.8322C216.182 46.7381 215.363 47.0807 213.912 47.7791C212.461 48.4709 210.379 49.5321 207.746 50.7007C205.114 51.8492 201.897 53.1118 198.176 53.7834C196.315 54.126 194.334 54.3006 192.299 54.22C190.257 54.126 188.189 53.7566 186.14 53.0111C184.085 52.279 182.017 51.2313 179.793 50.244C178.679 49.7537 177.523 49.2769 176.301 48.8806C175.092 48.4843 173.809 48.1821 172.513 48.0276C172.567 47.9941 172.621 47.9605 172.681 47.9269C173.695 47.3292 174.944 46.1672 176.892 45.677C177.866 45.4217 178.961 45.1867 180.116 44.9315C180.7 44.8039 181.278 44.6762 181.869 44.5554C182.473 44.4412 183.084 44.3203 183.696 44.1994C184.931 43.9509 186.207 43.6688 187.43 43.239C188.236 42.9636 189.001 42.6211 189.727 42.2517C190.264 42.2114 190.929 42.2517 191.762 42.4465C192.279 42.5606 192.843 42.7218 193.461 42.8696C194.072 43.0106 194.744 43.1517 195.449 43.1651C196.853 43.2054 198.203 42.7957 199.344 42.3793C201.608 41.5129 203.314 40.7808 203.28 40.6667C203.24 40.5458 201.44 41.0696 199.143 41.7748C198.001 42.1107 196.712 42.4196 195.483 42.339C194.254 42.2651 193.058 41.8084 191.957 41.5666C191.681 41.5062 191.419 41.4592 191.171 41.4256C193.024 40.2234 194.408 38.8264 195.261 37.7115C196.174 36.5228 196.544 35.69 196.45 35.6295C196.336 35.5489 195.778 36.2474 194.744 37.2481C193.709 38.2421 192.158 39.5182 190.19 40.5391C189.203 41.0495 188.115 41.4928 186.98 41.8219C185.838 42.1509 184.622 42.3659 183.4 42.5674C182.782 42.6681 182.164 42.7688 181.56 42.8696C180.942 42.977 180.338 43.0979 179.76 43.2054C178.591 43.4405 177.476 43.6688 176.435 43.9375C175.401 44.2128 174.474 44.5285 173.688 44.8979C172.909 45.2606 172.258 45.6434 171.741 46.0061C170.686 46.7314 170.048 47.3157 169.625 47.7456C169.592 47.7791 169.558 47.806 169.531 47.8396C167.886 47.853 166.233 48.0478 164.628 48.3702C162.063 48.9142 159.578 49.7806 157.24 50.8753C154.896 51.9566 152.7 53.2864 150.632 54.6767C148.57 56.0737 146.615 57.5445 144.748 58.9885C142.881 60.4325 141.081 61.8496 139.315 63.166C137.555 64.4756 135.829 65.698 134.137 66.7524C130.745 68.8613 109.34 72.7702 106.419 73.5896C104.955 73.9992 103.558 74.241 102.261 74.3686C101.61 74.4492 100.979 74.4559 100.374 74.4761C100.072 74.4761 99.7765 74.4627 99.4877 74.4559C99.3399 74.4559 99.1922 74.4492 99.0511 74.4492C98.9101 74.4358 98.7691 74.4224 98.628 74.4089C97.5064 74.3418 96.4856 74.1403 95.5386 73.9186C94.5983 73.6903 93.7319 73.4351 92.9461 73.1597C91.3678 72.6157 90.0917 72.0583 89.0373 71.6083C88.8828 71.5344 88.7283 71.4739 88.5806 71.4068L89.7693 76.4775C89.9574 76.585 90.1656 76.6723 90.3939 76.726C92.1872 77.1827 94.155 77.3103 95.9886 77.4581C99.7429 77.7603 103.598 77.6663 107.252 76.6924C110.543 75.8193 132.256 71.7896 135.876 69.5397C138.657 67.8069 141.404 65.7114 144.191 63.5219C144.721 63.4414 145.319 63.3876 145.997 63.4078C146.763 63.4279 147.609 63.5488 148.543 63.851C149.483 64.1533 150.504 64.6503 151.612 65.2144C152.17 65.4965 152.754 65.792 153.372 66.0674C153.681 66.2084 154.003 66.336 154.326 66.4636L154.809 66.6517C154.97 66.7054 155.138 66.7592 155.299 66.8129C156.623 67.2494 157.986 67.545 159.329 67.7263C160.672 67.9009 161.989 67.9681 163.225 67.9748C164.46 67.9815 165.622 67.9211 166.663 67.8338C167.704 67.7532 168.631 67.639 169.397 67.5315C170.942 67.3099 171.862 67.095 171.855 66.9472C171.841 66.7927 170.895 66.7189 169.35 66.6786C168.577 66.6584 167.657 66.645 166.63 66.6114C165.609 66.5778 164.474 66.5375 163.292 66.4301C162.936 66.3965 162.573 66.3629 162.204 66.3226C162.822 65.8928 163.701 65.295 165.018 64.5428C166.052 63.9518 167.315 63.3272 168.658 62.8167C170.001 62.2929 171.425 61.8832 172.728 61.6078C174.024 61.3392 175.2 61.1847 176.053 61.0974C176.899 61.0101 177.423 60.9564 177.423 60.8758C177.429 60.8086 176.906 60.7146 176.039 60.6676C175.166 60.6273 173.95 60.6676 172.594 60.8489C171.23 61.0302 169.733 61.3795 168.315 61.863C166.898 62.3533 165.562 62.9779 164.474 63.5891C162.828 64.5294 161.183 65.4428 160.283 66.054C160.061 66.0137 159.84 65.9801 159.625 65.9398C158.382 65.6913 157.146 65.3555 155.971 64.9122L155.535 64.7443L155.105 64.5562C154.816 64.4354 154.534 64.3145 154.258 64.1801C153.708 63.9048 153.157 63.6093 152.6 63.3137C151.498 62.7227 150.37 62.1451 149.221 61.769C148.442 61.5205 147.69 61.3728 146.998 61.3056C150.591 58.4915 154.346 55.6371 158.543 53.6088C160.686 52.5544 162.936 51.7283 165.239 51.191C167.536 50.6873 169.887 50.4656 172.164 50.7208C173.312 50.835 174.421 51.0634 175.522 51.3925C176.623 51.7148 177.711 52.1312 178.799 52.5745C180.969 53.4611 183.131 54.4819 185.395 55.2073C186.53 55.5767 187.692 55.8587 188.84 56.0334C189.995 56.2147 191.137 56.2953 192.245 56.3087C193.32 56.3087 194.361 56.2416 195.375 56.1274C195.603 56.1677 195.852 56.2013 196.121 56.2349C197.283 56.3625 198.827 56.3759 200.775 56.0871C202.729 55.805 204.939 55.2073 207.182 54.67C208.311 54.4013 209.446 54.1663 210.56 53.9984C211.125 53.9178 211.675 53.8573 212.219 53.817C212.77 53.7834 213.307 53.77 213.845 53.7566C214.906 53.7364 215.94 53.6961 216.86 53.5417C217.787 53.3805 218.593 53.0917 219.211 52.7491C219.829 52.4066 220.252 52.0171 220.5 51.7216C220.742 51.4193 220.83 51.2246 220.803 51.2044Z" fill="#8B6E6E"/>
</g>
</g>
</g>
<path d="M174.104 198.814V177.1H176.456L186.867 194.758V177.1H187.678V198.814H186.867V198.787L174.915 178.506V198.814H174.104Z" fill="#8B6E6E"/>
<path d="M193.721 198.814V177.1H205.998V177.911H195.776V187.43H203.969V188.241H195.776V198.003H206.62V198.814H193.721Z" fill="#8B6E6E"/>
<path d="M218.189 199.139C217.175 199.139 216.121 198.882 215.025 198.382C213.944 197.882 212.95 197.003 212.051 195.759L212.727 195.299C213.356 196.205 214.079 196.915 214.89 197.435C215.715 197.942 216.567 198.26 217.432 198.382C218.311 198.49 219.142 198.429 219.92 198.193C220.691 197.963 221.353 197.544 221.894 196.949C222.448 196.34 222.813 195.563 222.976 194.623C223.172 193.487 222.854 192.406 222.029 191.378C221.218 190.35 220.089 189.526 218.649 188.89C218.575 188.856 218.493 188.809 218.406 188.755C218.331 188.701 218.243 188.667 218.135 188.647C217.662 188.431 217.108 188.153 216.459 187.809C215.823 187.471 215.201 187.045 214.593 186.538C213.977 186.017 213.464 185.402 213.051 184.699C212.652 183.982 212.463 183.151 212.483 182.211C212.497 181.332 212.754 180.548 213.241 179.858C213.727 179.155 214.356 178.574 215.134 178.101C215.904 177.634 216.729 177.33 217.594 177.181C218.676 176.951 219.629 176.938 220.461 177.154C221.306 177.37 222.009 177.715 222.57 178.182C223.145 178.635 223.55 179.155 223.787 179.75L223.03 180.075C222.665 179.23 222.151 178.614 221.488 178.236C220.819 177.844 220.089 177.654 219.298 177.668C218.52 177.688 217.77 177.884 217.053 178.263C216.35 178.628 215.755 179.148 215.269 179.831C214.796 180.521 214.545 181.332 214.512 182.265C214.491 183.259 214.897 184.097 215.728 184.78C216.553 185.469 217.655 186.132 219.028 186.781C219.19 186.889 219.339 186.97 219.487 187.024C220.136 187.335 220.799 187.667 221.488 188.025C222.191 188.39 222.827 188.829 223.408 189.35C223.983 189.877 224.422 190.499 224.733 191.216C225.058 191.939 225.146 192.784 225.004 193.758C224.841 194.988 224.301 196.07 223.381 197.003C222.462 197.922 221.313 198.564 219.947 198.923C219.677 199.011 219.413 199.065 219.163 199.085C218.906 199.098 218.581 199.119 218.189 199.139Z" fill="#8B6E6E"/>
<path d="M235.996 198.814V177.911H230.507V177.1H243.568V177.911H238.051V198.814H235.996Z" fill="#8B6E6E"/>
<path d="M14 198.655V177.346H21.4635C23.2483 177.312 24.8302 177.481 26.2228 177.86C27.629 178.225 28.7377 178.773 29.549 179.51C30.3737 180.253 30.7929 181.159 30.7929 182.241C30.7929 183.796 30.225 184.931 29.0893 185.648C27.9535 186.371 26.5 186.838 24.7355 187.054C25.6347 187.149 26.5338 187.318 27.4397 187.568C28.3388 187.825 29.1771 188.176 29.9546 188.623C30.7253 189.076 31.3472 189.643 31.8205 190.326C32.2869 191.016 32.5235 191.827 32.5235 192.76C32.5235 193.95 32.0706 194.991 31.1715 195.87C30.2858 196.735 29.096 197.404 27.602 197.871C26.1011 198.344 24.4448 198.601 22.6263 198.655H14ZM19.7599 186.811H22.437C23.0657 186.811 23.5322 186.581 23.8432 186.108C24.1677 185.621 24.3908 185.026 24.5192 184.323C24.6409 183.62 24.7085 182.964 24.7085 182.349C24.7085 181.017 24.4719 179.888 24.0054 178.969C23.5525 178.049 22.7615 177.59 21.6258 177.59H19.7599V186.811ZM19.7599 198.276H21.788C23.424 198.276 24.5057 197.83 25.033 196.924C25.5738 196.025 25.8443 194.68 25.8443 192.895C25.8443 190.948 25.5468 189.528 24.9519 188.623C24.357 187.703 23.2077 187.243 21.5176 187.243H19.7599V198.276Z" fill="#8B6E6E"/>
<path d="M43.9609 198.655V177.346H49.0448V198.655H43.9609Z" fill="#8B6E6E"/>
<path d="M61.4355 198.655V177.346H68.899C70.6838 177.312 72.2657 177.481 73.6584 177.86C75.0645 178.225 76.1733 178.773 76.9845 179.51C77.8093 180.253 78.2284 181.159 78.2284 182.241C78.2284 183.796 77.6605 184.931 76.5248 185.648C75.389 186.371 73.9356 186.838 72.1711 187.054C73.0702 187.149 73.9694 187.318 74.8753 187.568C75.7744 187.825 76.6127 188.176 77.3901 188.623C78.1608 189.076 78.7828 189.643 79.256 190.326C79.7225 191.016 79.9591 191.827 79.9591 192.76C79.9591 193.95 79.5061 194.991 78.607 195.87C77.7214 196.735 76.5316 197.404 75.0375 197.871C73.5367 198.344 71.8804 198.601 70.0618 198.655H61.4355ZM67.1954 186.811H69.8725C70.5013 186.811 70.9677 186.581 71.2787 186.108C71.6032 185.621 71.8263 185.026 71.9548 184.323C72.0764 183.62 72.144 182.964 72.144 182.349C72.144 181.017 71.9074 179.888 71.441 178.969C70.988 178.049 70.197 177.59 69.0613 177.59H67.1954V186.811ZM67.1954 198.276H69.2235C70.8596 198.276 71.9412 197.83 72.4685 196.924C73.0094 196.025 73.2798 194.68 73.2798 192.895C73.2798 190.948 72.9823 189.528 72.3874 188.623C71.7925 187.703 70.6432 187.243 68.9531 187.243H67.1954V198.276Z" fill="#8B6E6E"/>
<path d="M91.3965 198.655V177.346H97.1564V198.276H99.8335C101.294 198.276 102.68 197.979 103.998 197.384C105.33 196.789 106.418 195.971 107.27 194.923C108.135 193.882 108.609 192.699 108.703 191.381H109.082L108.433 198.655H91.3965Z" fill="#8B6E6E"/>
<path d="M121.472 198.655V177.346H126.556V198.655H121.472Z" fill="#8B6E6E"/>
<path d="M149.357 199.034C147.769 199.034 146.288 198.75 144.923 198.195C143.55 197.621 142.34 196.83 141.299 195.816C140.271 194.808 139.46 193.646 138.865 192.327C138.284 190.995 138 189.562 138 188.028C138 186.513 138.284 185.1 138.865 183.782C139.46 182.45 140.271 181.287 141.299 180.294C142.34 179.286 143.55 178.502 144.923 177.941C146.288 177.366 147.769 177.076 149.357 177.076C150.926 177.076 152.386 177.366 153.738 177.941C155.104 178.502 156.307 179.286 157.335 180.294C158.376 181.287 159.187 182.45 159.769 183.782C160.363 185.1 160.661 186.513 160.661 188.028C160.661 189.562 160.363 190.995 159.769 192.327C159.187 193.646 158.376 194.808 157.335 195.816C156.307 196.83 155.104 197.621 153.738 198.195C152.386 198.75 150.926 199.034 149.357 199.034ZM149.357 198.547C150.655 198.547 151.67 198.087 152.413 197.168C153.17 196.235 153.711 194.971 154.036 193.382C154.36 191.8 154.522 190.015 154.522 188.028C154.522 186.047 154.333 184.262 153.955 182.673C153.59 181.091 153.035 179.848 152.278 178.942C151.521 178.022 150.547 177.562 149.357 177.562C148.073 177.562 147.045 178.022 146.275 178.942C145.497 179.848 144.95 181.091 144.625 182.673C144.301 184.262 144.138 186.047 144.138 188.028C144.138 190.015 144.301 191.8 144.625 193.382C144.95 194.971 145.497 196.235 146.275 197.168C147.045 198.087 148.073 198.547 149.357 198.547Z" fill="#8B6E6E"/>
<path d="M118.718 160.189V160.649C118.718 160.777 118.65 160.838 118.528 160.838H115.77V167.869C115.77 167.998 115.716 168.058 115.608 168.058H115.04C114.966 168.058 114.918 168.052 114.905 168.031C114.884 167.998 114.878 167.943 114.878 167.869V160.838H112.119C112.045 160.838 111.991 160.832 111.957 160.811C111.937 160.777 111.93 160.723 111.93 160.649V160.189C111.93 160.068 111.991 160 112.119 160H118.528C118.596 160 118.643 160.02 118.664 160.054C118.697 160.074 118.718 160.122 118.718 160.189Z" fill="#8B6E6E"/>
<path d="M129.468 160H130.036C130.144 160 130.198 160.068 130.198 160.189V167.869C130.198 167.998 130.144 168.058 130.036 168.058H129.468C129.36 168.058 129.306 167.998 129.306 167.869V164.435H124.763V167.869C124.763 167.998 124.709 168.058 124.601 168.058H124.06C123.931 168.058 123.871 167.998 123.871 167.869V160.189C123.871 160.068 123.931 160 124.06 160H124.601C124.709 160 124.763 160.068 124.763 160.189V163.624H129.306V160.189C129.306 160.068 129.36 160 129.468 160Z" fill="#8B6E6E"/>
<path d="M141.824 160.189V160.622C141.824 160.75 141.77 160.811 141.662 160.811H137.254V163.597H141.446C141.567 163.597 141.635 163.664 141.635 163.786V164.219C141.635 164.327 141.567 164.381 141.446 164.381H137.254V167.274H141.662C141.77 167.274 141.824 167.328 141.824 167.436V167.869C141.824 167.998 141.77 168.058 141.662 168.058H136.551C136.423 168.058 136.362 167.998 136.362 167.869V160.189C136.362 160.068 136.423 160 136.551 160H141.662C141.77 160 141.824 160.068 141.824 160.189Z" fill="#8B6E6E"/>
</svg>
