<svg width="110" height="75" viewBox="0 0 110 75" fill="none" xmlns="http://www.w3.org/2000/svg">
<path d="M18.8369 0.180201C17.2222 0.37392 16.5903 1.04057 16.1081 3.05915C15.3227 6.34715 12.3584 8.38329 7.88185 8.70982C5.69619 8.86924 5.52111 8.82647 4.54404 7.89444C3.97691 7.35344 3.22419 6.34721 2.87133 5.65837C2.18359 4.31577 1.0381 3.70253 0.405189 4.33811C-0.25239 4.99847 -0.0731981 9.11682 0.68014 10.6573C1.59991 12.538 4.42332 15.2925 6.45781 16.2938C7.85313 16.9806 8.66435 17.1284 11.0364 17.1284C12.6219 17.1284 14.6336 17.0057 15.5068 16.8556L17.0944 16.5829L17.3049 18.218C18.3784 26.5572 19.4564 29.2193 21.76 29.2193C22.1841 29.2193 22.9602 28.6899 23.5868 27.9732C24.6109 26.8019 24.6642 26.6129 24.4759 24.8228C24.3658 23.7754 24.1794 21.9768 24.0618 20.8258C23.7814 18.0825 24.3043 16.568 26.2548 14.4739C28.9923 11.5349 32.5726 10.2693 37.2822 10.5759C40.3229 10.7738 42.6548 11.5649 45.4055 13.332C51.2097 17.0606 57.2341 25.2179 60.5283 33.8092C62.1097 37.9333 63.3214 42.3678 63.2034 43.5992C63.0968 44.712 63.0875 44.7047 60.6089 41.5622C58.9946 39.5155 57.3278 37.8464 55.8608 36.8072C54.6174 35.9265 52.0163 34.006 50.0805 32.5393C48.1446 31.0727 46.3991 29.9269 46.2014 29.993C46.0037 30.0592 45.7059 30.5635 45.5396 31.1138C45.3732 31.6641 45.1823 32.2938 45.1153 32.5132C45.0303 32.7917 44.2583 32.6553 42.5571 32.0612C39.9387 31.1467 37.6299 31.1756 35.7419 32.1463C33.2058 33.4502 33.1352 34.7385 35.4601 37.293L37.1605 39.1614L36.4601 40.0655C33.3655 44.0601 32.2678 46.7236 32.4609 49.7691C32.5718 51.518 32.793 52.2114 33.5635 53.2259C34.5556 54.5322 36.2035 55.4455 37.5642 55.4432C39.7118 55.4397 42.5776 52.2204 42.5776 49.8114C42.5776 47.5729 41.7508 46.7999 39.1326 46.5907L36.9818 46.4189L38.2289 45.0566L39.4761 43.6942L42.977 43.7039C46.2486 43.713 46.6621 43.7946 49.2903 44.9499C55.1296 47.5166 61.7515 52.5641 64.251 56.3536C66.1159 59.181 65.7977 59.174 61.2055 56.2871C56.7056 53.4581 53.9953 52.5783 50.4338 52.7905C47.4776 52.9666 45.7599 53.6948 45.2742 54.9777C44.9884 55.7325 45.1342 56.0549 46.437 57.5506C48.5989 60.0323 48.9335 60.7592 48.3385 61.6812C46.7284 64.1763 46.269 65.5022 46.4898 67.0165C46.8562 69.5296 47.8412 71.0775 49.56 71.841C54.0687 73.8438 58.2315 69.7341 54.9907 66.4795C54.0179 65.5026 53.5967 65.3215 52.2975 65.3215C50.455 65.3215 50.1649 64.9987 51.1008 63.9899C52.0445 62.9727 53.2108 62.572 55.2686 62.5582C57.9386 62.5402 60.4987 63.6319 67.0749 67.5927C71.9481 70.5278 77.0204 72.9192 80.7324 74.0317C84.2501 75.0859 89.4299 75.3083 92.9419 74.5558C97.9954 73.4731 102.596 70.0599 104.65 65.8684C105.555 64.0224 105.773 63.1206 105.911 60.6476C106.107 57.1242 105.727 55.4509 104.214 53.1771C101.418 48.9754 94.3945 48.3433 91.3168 52.0164C90.1577 53.3997 89.9478 54.2547 90.1161 56.9077C90.2999 59.8063 91.2302 61.543 93.1182 62.5117C95.1604 63.5594 96.4139 63.4764 99.0014 62.122C100.216 61.4862 101.295 61.0519 101.4 61.157C101.853 61.6118 101.518 63.8986 100.814 65.1512C99.2222 67.9869 94.953 69.8919 90.2287 69.8749C86.4766 69.8614 84.232 68.9407 81.331 66.2251C76.3807 61.5912 74.2634 56.0638 75.1269 50.0291C76.4269 40.9439 82.1166 33.6383 92.0155 28.344C95.1286 26.6791 96.503 25.4389 96.503 24.295C96.503 23.2643 95.3972 22.4907 92.292 21.3491C91.1572 20.9319 90.1803 20.5548 90.1211 20.5111C89.8984 20.3468 91.891 16.71 93.2806 14.7443C96.7066 9.89819 102.28 6.00165 107.627 4.71335C109.67 4.22133 110.237 3.49103 109.916 1.77028C109.633 0.25352 108.725 -0.205847 106.577 0.0802739C102.526 0.620046 96.8704 4.0013 92.7158 8.36821C90.4548 10.7448 89.8059 11.7502 87.2363 16.8585C85.2017 20.9031 83.9543 22.9766 83.1058 23.7248C81.8204 24.8582 77.8957 26.995 77.6158 26.7139C77.525 26.6227 77.8574 25.851 78.3546 24.9991C79.3162 23.3512 79.2864 22.5536 78.2271 21.5909C77.6398 21.0572 77.4868 21.1138 75.5373 22.5854C73.3724 24.2197 71.0875 26.8441 70.0405 28.8991C69.1825 30.5832 68.4626 33.5382 67.8598 37.8509C67.295 41.8913 66.8834 43.1337 66.5585 41.7786C65.8322 38.7493 65.4705 34.3479 65.4705 28.5381C65.4705 22.057 65.4923 21.85 66.3736 19.9619C67.3245 17.9249 68.9014 16.4993 71.6536 15.1885C73.7666 14.1821 74.5682 12.6809 74.401 10.043C74.2934 8.34675 74.0492 7.61299 73.1607 6.31614C70.2744 2.10333 66.4345 1.96813 62.9388 5.95623C61.2116 7.92678 61.0101 9.05426 61.8855 11.8493C62.2669 13.0669 62.5809 14.5386 62.5833 15.1197C62.5877 16.1794 61.0246 22.8803 60.5838 23.6913C60.4372 23.9612 59.7464 23.0372 58.746 21.233C56.5611 17.2924 53.7017 13.7724 50.1595 10.6625C44.43 5.63231 39.4071 2.83609 33.3978 1.33152C28.8435 0.191248 22.7565 -0.290051 18.8369 0.180201Z" fill="#1D1112"/>
</svg>
