<svg width="110" height="75" viewBox="0 0 110 75" fill="none" xmlns="http://www.w3.org/2000/svg">
<path d="M18.8369 74.8198C17.2222 74.6261 16.5903 73.9594 16.1081 71.9409C15.3227 68.6529 12.3584 66.6167 7.88185 66.2902C5.69619 66.1308 5.52111 66.1735 4.54404 67.1056C3.97691 67.6466 3.22419 68.6528 2.87133 69.3416C2.18359 70.6842 1.0381 71.2975 0.405189 70.6619C-0.25239 70.0015 -0.0731981 65.8832 0.68014 64.3427C1.59991 62.462 4.42332 59.7075 6.45781 58.7062C7.85313 58.0194 8.66435 57.8716 11.0364 57.8716C12.6219 57.8716 14.6336 57.9943 15.5068 58.1444L17.0944 58.4171L17.3049 56.782C18.3784 48.4428 19.4564 45.7807 21.76 45.7807C22.1841 45.7807 22.9602 46.3101 23.5868 47.0268C24.6109 48.1981 24.6642 48.3871 24.4759 50.1772C24.3658 51.2246 24.1794 53.0232 24.0618 54.1742C23.7814 56.9175 24.3043 58.432 26.2548 60.5261C28.9923 63.4651 32.5726 64.7307 37.2822 64.4241C40.3229 64.2262 42.6548 63.4351 45.4055 61.668C51.2097 57.9394 57.2341 49.7821 60.5283 41.1908C62.1097 37.0667 63.3214 32.6322 63.2034 31.4008C63.0968 30.288 63.0875 30.2953 60.6089 33.4378C58.9946 35.4845 57.3278 37.1536 55.8608 38.1928C54.6174 39.0735 52.0163 40.994 50.0805 42.4607C48.1446 43.9273 46.3991 45.0731 46.2014 45.007C46.0037 44.9408 45.7059 44.4365 45.5396 43.8862C45.3732 43.3359 45.1823 42.7062 45.1153 42.4868C45.0303 42.2083 44.2583 42.3447 42.5571 42.9388C39.9387 43.8533 37.6299 43.8244 35.7419 42.8537C33.2058 41.5498 33.1352 40.2615 35.4601 37.707L37.1605 35.8386L36.4601 34.9345C33.3655 30.9399 32.2678 28.2764 32.4609 25.2309C32.5718 23.482 32.793 22.7886 33.5635 21.7741C34.5556 20.4678 36.2035 19.5545 37.5642 19.5568C39.7118 19.5603 42.5776 22.7796 42.5776 25.1886C42.5776 27.4271 41.7508 28.2001 39.1326 28.4093L36.9818 28.5811L38.2289 29.9434L39.4761 31.3058L42.977 31.2961C46.2486 31.287 46.6621 31.2054 49.2903 30.0501C55.1296 27.4834 61.7515 22.4359 64.251 18.6464C66.1159 15.819 65.7977 15.826 61.2055 18.7129C56.7056 21.5419 53.9953 22.4217 50.4338 22.2095C47.4776 22.0334 45.7599 21.3052 45.2742 20.0223C44.9884 19.2675 45.1342 18.9451 46.437 17.4494C48.5989 14.9677 48.9335 14.2408 48.3385 13.3188C46.7284 10.8237 46.269 9.49781 46.4898 7.98353C46.8562 5.47036 47.8412 3.92253 49.56 3.15901C54.0687 1.15617 58.2315 5.26594 54.9907 8.52048C54.0179 9.4974 53.5967 9.67847 52.2975 9.67847C50.455 9.67847 50.1649 10.0013 51.1008 11.0101C52.0445 12.0273 53.2108 12.428 55.2686 12.4418C57.9386 12.4598 60.4987 11.3681 67.0749 7.40728C71.9481 4.47217 77.0204 2.08077 80.7324 0.968337C84.2501 -0.0858861 89.4299 -0.308253 92.9419 0.444183C97.9954 1.52687 102.596 4.94009 104.65 9.13162C105.555 10.9776 105.773 11.8794 105.911 14.3524C106.107 17.8758 105.727 19.5491 104.214 21.8229C101.418 26.0246 94.3945 26.6567 91.3168 22.9836C90.1577 21.6003 89.9478 20.7453 90.1161 18.0923C90.2999 15.1937 91.2302 13.457 93.1182 12.4883C95.1604 11.4406 96.4139 11.5236 99.0014 12.878C100.216 13.5138 101.295 13.9481 101.4 13.843C101.853 13.3882 101.518 11.1014 100.814 9.84877C99.2222 7.01315 94.953 5.10807 90.2287 5.12506C86.4766 5.13855 84.232 6.05928 81.331 8.77487C76.3807 13.4088 74.2634 18.9362 75.1269 24.9709C76.4269 34.0561 82.1166 41.3617 92.0155 46.656C95.1286 48.3209 96.503 49.5611 96.503 50.705C96.503 51.7357 95.3972 52.5093 92.292 53.6509C91.1572 54.0681 90.1803 54.4452 90.1211 54.4889C89.8984 54.6532 91.891 58.29 93.2806 60.2557C96.7066 65.1018 102.28 68.9983 107.627 70.2867C109.67 70.7787 110.237 71.509 109.916 73.2297C109.633 74.7465 108.725 75.2058 106.577 74.9197C102.526 74.38 96.8704 70.9987 92.7158 66.6318C90.4548 64.2552 89.8059 63.2498 87.2363 58.1415C85.2017 54.0969 83.9543 52.0234 83.1058 51.2752C81.8204 50.1418 77.8957 48.005 77.6158 48.2861C77.525 48.3773 77.8574 49.149 78.3546 50.0009C79.3162 51.6488 79.2864 52.4464 78.2271 53.4091C77.6398 53.9428 77.4868 53.8862 75.5373 52.4146C73.3724 50.7803 71.0875 48.1559 70.0405 46.1009C69.1825 44.4168 68.4626 41.4618 67.8598 37.1491C67.295 33.1087 66.8834 31.8663 66.5585 33.2214C65.8322 36.2507 65.4705 40.6521 65.4705 46.4619C65.4705 52.943 65.4923 53.15 66.3736 55.0381C67.3245 57.0751 68.9014 58.5007 71.6536 59.8115C73.7666 60.8179 74.5682 62.3191 74.401 64.957C74.2934 66.6533 74.0492 67.387 73.1607 68.6839C70.2744 72.8967 66.4345 73.0319 62.9388 69.0438C61.2116 67.0732 61.0101 65.9457 61.8855 63.1507C62.2669 61.9331 62.5809 60.4614 62.5833 59.8803C62.5877 58.8206 61.0246 52.1197 60.5838 51.3087C60.4372 51.0388 59.7464 51.9628 58.746 53.767C56.5611 57.7076 53.7017 61.2276 50.1595 64.3375C44.43 69.3677 39.4071 72.1639 33.3978 73.6685C28.8435 74.8088 22.7565 75.2901 18.8369 74.8198Z" fill="#1D1112"/>
</svg>
