<svg width="110" height="75" viewBox="0 0 110 75" fill="none" xmlns="http://www.w3.org/2000/svg">
<path d="M91.1631 74.8198C92.7778 74.6261 93.4097 73.9594 93.8919 71.9409C94.6773 68.6529 97.6416 66.6167 102.118 66.2902C104.304 66.1308 104.479 66.1735 105.456 67.1056C106.023 67.6466 106.776 68.6528 107.129 69.3416C107.816 70.6842 108.962 71.2975 109.595 70.6619C110.252 70.0015 110.073 65.8832 109.32 64.3427C108.4 62.462 105.577 59.7075 103.542 58.7062C102.147 58.0194 101.336 57.8716 98.9636 57.8716C97.3781 57.8716 95.3664 57.9943 94.4932 58.1444L92.9056 58.4171L92.6951 56.782C91.6216 48.4428 90.5436 45.7807 88.24 45.7807C87.8159 45.7807 87.0398 46.3101 86.4132 47.0268C85.3891 48.1981 85.3358 48.3871 85.5241 50.1772C85.6342 51.2246 85.8206 53.0232 85.9382 54.1742C86.2186 56.9175 85.6957 58.432 83.7452 60.5261C81.0077 63.4651 77.4274 64.7307 72.7178 64.4241C69.6771 64.2262 67.3452 63.4351 64.5945 61.668C58.7903 57.9394 52.7659 49.7821 49.4717 41.1908C47.8903 37.0667 46.6786 32.6322 46.7966 31.4008C46.9032 30.288 46.9125 30.2953 49.3911 33.4378C51.0054 35.4845 52.6722 37.1536 54.1392 38.1928C55.3826 39.0735 57.9837 40.994 59.9195 42.4607C61.8554 43.9273 63.6009 45.0731 63.7986 45.007C63.9963 44.9408 64.2941 44.4365 64.4604 43.8862C64.6268 43.3359 64.8177 42.7062 64.8847 42.4868C64.9697 42.2083 65.7417 42.3447 67.4429 42.9388C70.0613 43.8533 72.3701 43.8244 74.2581 42.8537C76.7942 41.5498 76.8648 40.2615 74.5399 37.707L72.8395 35.8386L73.5399 34.9345C76.6345 30.9399 77.7322 28.2764 77.5391 25.2309C77.4282 23.482 77.207 22.7886 76.4365 21.7741C75.4444 20.4678 73.7965 19.5545 72.4358 19.5568C70.2882 19.5603 67.4224 22.7796 67.4224 25.1886C67.4224 27.4271 68.2492 28.2001 70.8674 28.4093L73.0182 28.5811L71.7711 29.9434L70.5239 31.3058L67.023 31.2961C63.7514 31.287 63.3379 31.2054 60.7097 30.0501C54.8704 27.4834 48.2485 22.4359 45.749 18.6464C43.8841 15.819 44.2023 15.826 48.7945 18.7129C53.2944 21.5419 56.0047 22.4217 59.5662 22.2095C62.5224 22.0334 64.2401 21.3052 64.7258 20.0223C65.0116 19.2675 64.8658 18.9451 63.563 17.4494C61.4011 14.9677 61.0665 14.2408 61.6615 13.3188C63.2716 10.8237 63.731 9.49781 63.5102 7.98353C63.1438 5.47036 62.1588 3.92253 60.44 3.15901C55.9313 1.15617 51.7685 5.26594 55.0093 8.52048C55.9821 9.4974 56.4033 9.67847 57.7025 9.67847C59.545 9.67847 59.8351 10.0013 58.8992 11.0101C57.9555 12.0273 56.7892 12.428 54.7314 12.4418C52.0614 12.4598 49.5013 11.3681 42.9251 7.40728C38.0519 4.47217 32.9796 2.08077 29.2676 0.968337C25.7499 -0.0858861 20.5701 -0.308253 17.0581 0.444183C12.0046 1.52687 7.40441 4.94009 5.34961 9.13162C4.44467 10.9776 4.22692 11.8794 4.08903 14.3524C3.89257 17.8758 4.27265 19.5491 5.78584 21.8229C8.58206 26.0246 15.6055 26.6567 18.6832 22.9836C19.8423 21.6003 20.0522 20.7453 19.8839 18.0923C19.7001 15.1937 18.7698 13.457 16.8818 12.4883C14.8396 11.4406 13.5861 11.5236 10.9986 12.878C9.78393 13.5138 8.7045 13.9481 8.59989 13.843C8.14702 13.3882 8.48244 11.1014 9.18574 9.84877C10.7778 7.01315 15.047 5.10807 19.7713 5.12506C23.5234 5.13855 25.768 6.05928 28.669 8.77487C33.6193 13.4088 35.7366 18.9362 34.8731 24.9709C33.5731 34.0561 27.8834 41.3617 17.9845 46.656C14.8714 48.3209 13.497 49.5611 13.497 50.705C13.497 51.7357 14.6028 52.5093 17.708 53.6509C18.8428 54.0681 19.8197 54.4452 19.8789 54.4889C20.1016 54.6532 18.109 58.29 16.7194 60.2557C13.2934 65.1018 7.72043 68.9983 2.37277 70.2867C0.330453 70.7787 -0.237497 71.509 0.0839583 73.2297C0.367305 74.7465 1.2748 75.2058 3.42261 74.9197C7.47449 74.38 13.1296 70.9987 17.2842 66.6318C19.5452 64.2552 20.1941 63.2498 22.7637 58.1415C24.7983 54.0969 26.0457 52.0234 26.8942 51.2752C28.1796 50.1418 32.1043 48.005 32.3842 48.2861C32.475 48.3773 32.1426 49.149 31.6454 50.0009C30.6838 51.6488 30.7136 52.4464 31.7729 53.4091C32.3602 53.9428 32.5132 53.8862 34.4627 52.4146C36.6276 50.7803 38.9125 48.1559 39.9595 46.1009C40.8175 44.4168 41.5374 41.4618 42.1402 37.1491C42.705 33.1087 43.1166 31.8663 43.4415 33.2214C44.1678 36.2507 44.5295 40.6521 44.5295 46.4619C44.5295 52.943 44.5077 53.15 43.6264 55.0381C42.6755 57.0751 41.0986 58.5007 38.3464 59.8115C36.2334 60.8179 35.4318 62.3191 35.599 64.957C35.7066 66.6533 35.9508 67.387 36.8393 68.6839C39.7256 72.8967 43.5655 73.0319 47.0612 69.0438C48.7884 67.0732 48.9899 65.9457 48.1145 63.1507C47.7331 61.9331 47.4191 60.4614 47.4167 59.8803C47.4123 58.8206 48.9754 52.1197 49.4162 51.3087C49.5628 51.0388 50.2536 51.9628 51.254 53.767C53.4389 57.7076 56.2983 61.2276 59.8405 64.3375C65.57 69.3677 70.5929 72.1639 76.6022 73.6685C81.1565 74.8088 87.2435 75.2901 91.1631 74.8198Z" fill="#1D1112"/>
</svg>
