<svg width="110" height="75" viewBox="0 0 110 75" fill="none" xmlns="http://www.w3.org/2000/svg">
<path d="M91.1631 0.180201C92.7778 0.37392 93.4097 1.04057 93.8919 3.05915C94.6773 6.34715 97.6416 8.38329 102.118 8.70982C104.304 8.86924 104.479 8.82647 105.456 7.89444C106.023 7.35344 106.776 6.34721 107.129 5.65837C107.816 4.31577 108.962 3.70253 109.595 4.33811C110.252 4.99847 110.073 9.11682 109.32 10.6573C108.4 12.538 105.577 15.2925 103.542 16.2938C102.147 16.9806 101.336 17.1284 98.9636 17.1284C97.3781 17.1284 95.3664 17.0057 94.4932 16.8556L92.9056 16.5829L92.6951 18.218C91.6216 26.5572 90.5436 29.2193 88.24 29.2193C87.8159 29.2193 87.0398 28.6899 86.4132 27.9732C85.3891 26.8019 85.3358 26.6129 85.5241 24.8228C85.6342 23.7754 85.8206 21.9768 85.9382 20.8258C86.2186 18.0825 85.6957 16.568 83.7452 14.4739C81.0077 11.5349 77.4274 10.2693 72.7178 10.5759C69.6771 10.7738 67.3452 11.5649 64.5945 13.332C58.7903 17.0606 52.7659 25.2179 49.4717 33.8092C47.8903 37.9333 46.6786 42.3678 46.7966 43.5992C46.9032 44.712 46.9125 44.7047 49.3911 41.5622C51.0054 39.5155 52.6722 37.8464 54.1392 36.8072C55.3826 35.9265 57.9837 34.006 59.9195 32.5393C61.8554 31.0727 63.6009 29.9269 63.7986 29.993C63.9963 30.0592 64.2941 30.5635 64.4604 31.1138C64.6268 31.6641 64.8177 32.2938 64.8847 32.5132C64.9697 32.7917 65.7417 32.6553 67.4429 32.0612C70.0613 31.1467 72.3701 31.1756 74.2581 32.1463C76.7942 33.4502 76.8648 34.7385 74.5399 37.293L72.8395 39.1614L73.5399 40.0655C76.6345 44.0601 77.7322 46.7236 77.5391 49.7691C77.4282 51.518 77.207 52.2114 76.4365 53.2259C75.4444 54.5322 73.7965 55.4455 72.4358 55.4432C70.2882 55.4397 67.4224 52.2204 67.4224 49.8114C67.4224 47.5729 68.2492 46.7999 70.8674 46.5907L73.0182 46.4189L71.7711 45.0566L70.5239 43.6942L67.023 43.7039C63.7514 43.713 63.3379 43.7946 60.7097 44.9499C54.8704 47.5166 48.2485 52.5641 45.749 56.3536C43.8841 59.181 44.2023 59.174 48.7945 56.2871C53.2944 53.4581 56.0047 52.5783 59.5662 52.7905C62.5224 52.9666 64.2401 53.6948 64.7258 54.9777C65.0116 55.7325 64.8658 56.0549 63.563 57.5506C61.4011 60.0323 61.0665 60.7592 61.6615 61.6812C63.2716 64.1763 63.731 65.5022 63.5102 67.0165C63.1438 69.5296 62.1588 71.0775 60.44 71.841C55.9313 73.8438 51.7685 69.7341 55.0093 66.4795C55.9821 65.5026 56.4033 65.3215 57.7025 65.3215C59.545 65.3215 59.8351 64.9987 58.8992 63.9899C57.9555 62.9727 56.7892 62.572 54.7314 62.5582C52.0614 62.5402 49.5013 63.6319 42.9251 67.5927C38.0519 70.5278 32.9796 72.9192 29.2676 74.0317C25.7499 75.0859 20.5701 75.3083 17.0581 74.5558C12.0046 73.4731 7.40441 70.0599 5.34961 65.8684C4.44467 64.0224 4.22692 63.1206 4.08903 60.6476C3.89257 57.1242 4.27265 55.4509 5.78584 53.1771C8.58206 48.9754 15.6055 48.3433 18.6832 52.0164C19.8423 53.3997 20.0522 54.2547 19.8839 56.9077C19.7001 59.8063 18.7698 61.543 16.8818 62.5117C14.8396 63.5594 13.5861 63.4764 10.9986 62.122C9.78393 61.4862 8.7045 61.0519 8.59989 61.157C8.14702 61.6118 8.48244 63.8986 9.18574 65.1512C10.7778 67.9869 15.047 69.8919 19.7713 69.8749C23.5234 69.8614 25.768 68.9407 28.669 66.2251C33.6193 61.5912 35.7366 56.0638 34.8731 50.0291C33.5731 40.9439 27.8834 33.6383 17.9845 28.344C14.8714 26.6791 13.497 25.4389 13.497 24.295C13.497 23.2643 14.6028 22.4907 17.708 21.3491C18.8428 20.9319 19.8197 20.5548 19.8789 20.5111C20.1016 20.3468 18.109 16.71 16.7194 14.7443C13.2934 9.89819 7.72043 6.00165 2.37277 4.71335C0.330453 4.22133 -0.237497 3.49103 0.0839583 1.77028C0.367305 0.25352 1.2748 -0.205847 3.42261 0.0802739C7.47449 0.620046 13.1296 4.0013 17.2842 8.36821C19.5452 10.7448 20.1941 11.7502 22.7637 16.8585C24.7983 20.9031 26.0457 22.9766 26.8942 23.7248C28.1796 24.8582 32.1043 26.995 32.3842 26.7139C32.475 26.6227 32.1426 25.851 31.6454 24.9991C30.6838 23.3512 30.7136 22.5536 31.7729 21.5909C32.3602 21.0572 32.5132 21.1138 34.4627 22.5854C36.6276 24.2197 38.9125 26.8441 39.9595 28.8991C40.8175 30.5832 41.5374 33.5382 42.1402 37.8509C42.705 41.8913 43.1166 43.1337 43.4415 41.7786C44.1678 38.7493 44.5295 34.3479 44.5295 28.5381C44.5295 22.057 44.5077 21.85 43.6264 19.9619C42.6755 17.9249 41.0986 16.4993 38.3464 15.1885C36.2334 14.1821 35.4318 12.6809 35.599 10.043C35.7066 8.34675 35.9508 7.61299 36.8393 6.31614C39.7256 2.10333 43.5655 1.96813 47.0612 5.95623C48.7884 7.92678 48.9899 9.05426 48.1145 11.8493C47.7331 13.0669 47.4191 14.5386 47.4167 15.1197C47.4123 16.1794 48.9754 22.8803 49.4162 23.6913C49.5628 23.9612 50.2536 23.0372 51.254 21.233C53.4389 17.2924 56.2983 13.7724 59.8405 10.6625C65.57 5.63231 70.5929 2.83609 76.6022 1.33152C81.1565 0.191248 87.2435 -0.290051 91.1631 0.180201Z" fill="#1D1112"/>
</svg>
