<svg width="570" height="80" viewBox="0 0 570 80" fill="none" xmlns="http://www.w3.org/2000/svg">
<path d="M312.129 4.10117C313.765 7.70806 313.564 8.54839 310.459 11.0735C308.518 12.6525 305.91 13.5519 304.665 13.072C301.779 11.9597 301.716 9.40113 304.575 9.40113C307.301 9.40113 309.233 4.66836 307.3 2.72649C305.087 0.503705 299.458 4.23199 298.354 8.65211C297.108 13.6374 294.602 12.0946 294.602 6.34252C294.602 1.37627 296.837 -3.18379e-05 304.902 -3.18379e-05C309.176 -3.18379e-05 310.647 0.834549 312.129 4.10117ZM274.01 1.88016C276.496 4.37743 276.37 7.04162 273.502 12.6126C270.831 17.7991 267.951 18.8578 269.162 14.2078C269.812 11.7107 269.336 11.3417 266.443 12.1016C260.227 13.7343 257.056 4.94885 262.508 1.19912C265.125 -0.600703 271.942 -0.197125 274.01 1.88016ZM263.784 5.87564C263.381 7.10353 264.645 7.83424 267.172 7.83424C269.793 7.83424 271.202 6.97477 271.202 5.37494C271.202 2.42828 264.772 2.86231 263.784 5.87564ZM288.177 8.52904C289.171 12.4951 291.421 16.5454 293.404 17.941L296.886 20.3907L292.695 24.2941C290.225 26.5951 288.111 30.6108 287.548 34.0762C287.022 37.3095 286.213 41.982 285.75 44.4597C284.43 51.5221 287.521 48.1792 292.813 36.8195C298.002 25.6837 300.204 24.6045 308.719 29.0271C314.338 31.9458 314.563 33.818 309.45 35.1071C302.636 36.8248 294.994 45.0829 291.254 54.7686C288.313 62.3888 287.409 63.5321 285.933 61.5042C283.948 58.777 280.562 60.0667 280.562 63.5502C280.562 64.792 279.86 65.808 279.002 65.808C278.144 65.808 277.442 64.135 277.442 62.0901C277.442 57.2397 271.698 44.0454 267.645 39.5871C265.895 37.6613 262.118 35.6439 259.252 35.1039C256.387 34.5639 254.042 33.6706 254.042 33.1187C254.042 32.0117 266.563 25.0584 268.544 25.0653C270.71 25.0742 277.369 41.2257 278.411 48.9995C278.962 53.1122 280.116 56.9134 280.974 57.4465C283.607 59.081 281.503 32.773 278.521 26.768C275.186 20.053 275.213 19.3675 279.002 14.5292C280.718 12.3381 282.122 8.52516 282.122 6.05605C282.122 -1.06503 286.188 0.595654 288.177 8.52904ZM194.762 6.94183C194.762 10.2208 194.019 10.9679 190.754 10.9679C187.489 10.9679 186.838 10.3138 187.244 7.44252C187.564 5.17692 188.997 3.73819 191.252 3.41641C194.111 3.00868 194.762 3.6629 194.762 6.94183ZM382.481 5.74511C383.053 6.31962 383.521 8.13134 383.521 9.77123C383.521 11.967 382.596 12.6208 380.011 12.2521C375.426 11.598 374.02 4.70055 378.472 4.70055C380.105 4.70055 381.909 5.17056 382.481 5.74511ZM203.81 15.9819C206.123 18.3051 206.263 24.5241 204.034 25.9081C200.673 27.9942 194.762 25.143 194.762 21.436C194.762 17.6315 197.39 14.1017 200.222 14.1017C201.166 14.1017 202.781 14.9478 203.81 15.9819ZM374.036 17.8679C377.347 21.875 375.456 25.8531 370.24 25.8531C366.103 25.8531 365.581 25.326 365.581 21.1525C365.581 17.5801 366.362 16.3398 368.837 15.9847C370.628 15.7275 372.968 16.5751 374.036 17.8679ZM265.378 20.5635C264.32 21.6344 263.061 22.1158 262.581 21.6334C262.1 21.1509 262.966 20.2748 264.505 19.6864C266.728 18.8361 266.907 19.0161 265.378 20.5635ZM315.661 23.7291C330.446 29.904 332.969 31.7259 338.735 40.3915C343.394 47.3926 344.521 50.5435 344.521 56.571C344.521 60.6879 343.883 64.4526 343.102 64.9371C342.321 65.4216 341.728 62.8149 341.783 59.1444C341.944 48.5039 336.621 38.467 327.852 32.8715C323.721 30.2356 318.586 27.6352 316.441 27.0927C311.39 25.8151 302.466 20.367 305.521 20.4261C306.808 20.4527 311.371 21.9373 315.661 23.7291ZM256.247 27.2024C252.741 29.2163 247.66 32.5069 244.956 34.5148C242.253 36.5226 239.691 37.8141 239.263 37.3847C238.177 36.2933 257.686 23.4986 260.402 23.5217C261.623 23.5306 259.753 25.1884 256.247 27.2024ZM221.82 29.5019C225.285 33.347 225.092 34.285 220.474 36.0484C214.593 38.2941 213.144 43.8457 216.101 52.8033C217.466 56.9396 220.012 61.9076 221.759 63.8432C223.506 65.7788 224.433 67.8666 223.819 68.4826C222.649 69.6581 218.069 64.6751 210.419 53.9032C204.941 46.1898 199.419 42.3052 193.934 42.3052C190.427 42.3052 189.942 41.7197 190.369 37.9963C191.01 32.3949 196.676 31.4188 202.678 35.8755C207.046 39.1192 207.049 39.1192 208.047 35.9594C209.225 32.2327 214.86 26.6366 217.435 26.6366C218.427 26.6366 220.4 27.926 221.82 29.5019ZM360.566 32.0079C361.884 33.3318 363.274 35.3088 363.654 36.4014C364.168 37.879 365.135 37.6854 367.426 35.646C371.423 32.0887 377.674 32.1458 380.939 35.7695C385.039 40.32 384.056 42.3007 377.671 42.3551C370.234 42.4186 367.561 44.52 359.58 56.5784C356.016 61.9619 351.346 67.4748 349.201 68.8293L345.301 71.2921L348.027 67.375C353.482 59.5362 357.221 51.3022 357.347 46.8496C357.485 41.9682 353.25 36.0378 349.625 36.0378C348.361 36.0378 347.634 34.8625 347.929 33.2958C348.617 29.6526 357.336 28.7639 360.566 32.0079ZM330.14 42.154C336.343 48.2001 338.3 51.7063 335.473 51.7063C334.787 51.7063 333.439 50.9168 332.479 49.9521C331.518 48.9872 327.716 47.6438 324.029 46.9667C314.756 45.2635 307.149 48.6445 298.489 58.3181C292.966 64.4888 291.482 65.4732 291.482 62.9656C291.482 55.3985 308.99 38.1136 318.17 36.6172C322.916 35.8437 324.343 36.504 330.14 42.154ZM258.165 39.778C266.083 44.1967 272.762 54.0342 272.762 61.2767C272.762 64.2835 272.331 64.0683 269.252 59.5247C267.321 56.6757 263.867 52.9498 261.575 51.2449C256.443 47.4271 246.275 47.1638 240.888 50.7092C236.176 53.8103 235.322 53.8881 235.322 51.216C235.322 48.8475 242.3 41.9479 247.309 39.3629C251.432 37.2356 253.771 37.3253 258.165 39.778ZM126.643 41.7829C128.766 43.9155 127.577 47.1461 124.207 48.3981C120.8 49.6641 120.823 49.7365 125.377 52.0859C127.932 53.4039 134.235 55.3096 139.383 56.3206C161.715 60.7063 156.308 62.3521 117.81 62.8871C95.1726 63.2016 83.3631 64.0024 78.8718 65.5273C73.7633 67.2618 71.7978 67.3222 69.4006 65.8186C65.9281 63.6405 51.893 62.7371 20.9539 62.7003C9.0135 62.6869 -0.409552 62.3267 0.013723 61.9014C0.436909 61.4763 15.4715 60.9329 33.4235 60.694C60.7083 60.3311 66.8744 59.8193 71.0055 57.5761C75.4713 55.1512 76.4811 55.1165 81.4853 57.2168C87.9533 59.9312 127.683 60.608 127.683 58.0038C127.683 57.1585 126.016 56.0466 123.979 55.5331C120.422 54.6364 116.763 49.1686 116.763 44.7496C116.763 41.5524 124.192 39.3214 126.643 41.7829ZM448.801 44.2587C451.358 46.8269 451.044 49.1505 447.533 53.6333L444.466 57.5498L452.603 58.5316C467.29 60.3037 481.836 59.6703 487.405 57.0163C492.274 54.6952 493.206 54.6952 498.982 57.0163C503.041 58.6478 509.974 59.5405 518.583 59.5405C526.093 59.5405 531.525 60.1566 531.035 60.9526C530.557 61.7292 523.967 62.3229 516.391 62.272C505.777 62.2004 501.519 62.83 497.836 65.0149C493.313 67.6989 492.707 67.7099 486.512 65.2201C481.139 63.0611 474.259 62.5856 448.123 62.5674C422.497 62.5496 416.28 62.1335 416.28 60.4373C416.28 59.114 419.039 57.9404 423.69 57.284C438.594 55.181 442.095 53.24 441.375 47.4792C441.009 44.5458 446.651 42.0989 448.801 44.2587ZM231.859 47.137C229.197 50.7525 228.302 54.0826 228.302 60.3656C228.302 69.3794 230.169 72.2549 239.341 77.365L243.902 79.9064L236.882 79.5164C231.906 79.2397 229.993 78.5031 230.313 76.9855C230.56 75.808 229.813 73.3402 228.652 71.5015C225.053 65.8035 225.272 53.9817 229.091 47.7753C230.942 44.7667 233.122 42.3052 233.936 42.3052C234.75 42.3052 233.815 44.4794 231.859 47.137ZM400.236 50.8008C403.359 52.2171 405.638 54.6194 406.274 57.1647C407.75 63.0729 405.987 63.7344 403.198 58.3185C397.705 47.6499 381.63 50.135 366.361 64.0135C362.5 67.5227 355.382 72.535 350.543 75.1518C342.733 79.3751 340.268 79.9097 328.605 79.9097C316.062 79.9097 315.263 79.6975 311.013 75.2426C302.814 66.647 307.086 52.9893 318.277 52.0195C327.076 51.2571 331.231 56.2138 330.661 66.7931C330.427 71.1429 322.61 74.6623 318.506 72.2654C315.978 70.7886 316.117 70.5986 319.76 70.5562C324.998 70.4954 327.722 67.1756 327.084 61.6302C325.941 51.7032 311.657 52.4523 309.447 62.5552C308.159 68.4462 310.552 72.9336 316.677 76.1151C322.759 79.2738 329.751 78.0803 335.803 72.8504C340.997 68.3622 343.318 68.9179 339.07 73.6327C333.546 79.7628 341.503 77.2256 353.881 68.9097C360.316 64.5865 369.25 58.5833 373.735 55.5693C383.302 49.1399 392.805 47.4299 400.236 50.8008ZM189.77 50.2171C196.132 52.7813 227.882 75.3704 226.738 76.5192C225.704 77.5578 213.192 69.5754 206.462 63.5837C197.275 55.4038 188.474 51.7063 178.193 51.7063C171.083 51.7063 168.82 52.3649 166.433 55.1289C162.594 59.5752 161.142 65.5707 163.365 67.803C164.669 69.1124 165.123 68.5384 165.123 65.5808C165.123 61.6152 167.408 58.9728 174.071 55.2317C177.762 53.1601 181.972 52.5409 180.188 54.332C179.608 54.9144 180.685 57.049 182.58 59.0754C186.753 63.537 187.187 72.5218 183.412 76.3134C179.807 79.9343 178.283 77.784 181.343 73.395C184.503 68.8643 184.518 65.1439 181.391 62.0028C178.19 58.7873 170.42 58.7978 169.19 62.0206C167.54 66.3376 168.097 67.8813 170.563 65.8261C173.918 63.029 177.92 65.1019 177.322 69.328C176.982 71.734 175.579 73.0277 172.923 73.3848C170.778 73.6731 168.389 74.5216 167.614 75.27C166.815 76.0416 164.957 75.9604 163.324 75.0822C161.126 73.9009 160.443 71.7183 160.443 65.8825C160.443 55.9904 161.432 53.6515 166.794 50.8664C171.681 48.3281 184.203 47.9735 189.77 50.2171ZM258.013 57.1191C260.324 59.4406 261.842 62.7726 261.842 65.5255C261.842 70.3451 256.64 78.3594 253.539 78.3189C252.238 78.3012 252.203 77.9587 253.418 77.1437C258.652 73.6336 260.321 62.9379 256.27 58.8691C253.369 55.9553 246.084 55.625 243.434 58.2871C240.668 61.0649 241.119 68.4358 244.125 69.5944C247.378 70.8482 249.176 69.196 246.42 67.4853C243.413 65.6188 245.77 59.5405 249.501 59.5405C251.237 59.5405 253.312 61.2237 254.323 63.4514C255.789 66.6827 255.605 67.9076 253.268 70.5022C247.287 77.1401 237.298 71.2381 239.081 62.1194C240.903 52.7969 251.043 50.1187 258.013 57.1191ZM398.284 59.4775C402.035 63.6405 400.323 69.8037 394.588 72.7823C390.131 75.0972 390.096 75.0788 389.35 70.0688C388.512 64.4442 390.499 62.2756 395.221 63.6616C398.144 64.5196 398.177 64.4056 395.743 61.8558C391.697 57.618 385.716 59.8764 384.475 66.1105C382.879 74.1218 389.991 79.1486 398.731 76.1873C400.661 75.5332 402.263 73.8116 402.29 72.3616C402.318 70.9115 403.371 68.3565 404.63 66.6837C406.543 64.143 406.921 64.0617 406.921 66.19C406.921 69.9637 403.875 77.3233 401.753 78.6787C397.736 81.244 389.624 79.9151 385.79 76.0638C380.579 70.8302 380.698 63.8995 386.071 59.6543C391.214 55.5912 394.736 55.54 398.284 59.4775ZM322.003 60.205C326.134 63.2385 323.757 67.3749 317.883 67.3749C314.06 67.3749 313.195 66.832 313.934 64.8964C314.455 63.5333 314.881 61.846 314.881 61.1469C314.881 58.7623 319.252 58.1843 322.003 60.205ZM569.96 61.0733C568.777 62.9957 536.399 62.8745 536.399 60.9476C536.399 60.1737 544.163 59.5405 553.651 59.5405C564.499 59.5405 570.553 60.1095 569.96 61.0733ZM275.882 68.1583C275.882 69.4509 275.606 70.5086 275.269 70.5086C274.931 70.5086 274.251 69.4509 273.758 68.1583C273.264 66.8656 273.54 65.808 274.371 65.808C275.202 65.808 275.882 66.8656 275.882 68.1583ZM289.439 71.505C291.419 76.6879 283.98 82.4032 280.198 78.6045C279.323 77.725 279.06 75.1911 279.614 72.9736C280.361 69.9808 281.631 68.9417 284.54 68.9417C286.73 68.9417 288.892 70.073 289.439 71.505Z" fill="#1D1112"/>
</svg>
