<svg width="133" height="36" viewBox="0 0 133 36" fill="none" xmlns="http://www.w3.org/2000/svg">
    <g clip-path="url(#clip0_82_4028)">
        <path
            d="M52.4214 0.263154C41.1148 0.544455 30.5562 8.83303 29.7722 9.4686C15.1417 21.3292 6.41777 19.7075 2.95709 15.5827C-0.503575 11.458 1.30623 4.82946 7.75879 6.69034C0.198167 3.08762 -1.53058 12.0119 1.84224 16.2088C5.85695 21.2044 16.2565 22.9923 30.8871 11.1316C31.6711 10.4961 41.1148 1.73793 52.4214 1.45663C56.6448 1.35157 61.3047 2.0476 65.5942 4.04904C63.481 5.24596 61.4826 6.74747 59.7266 8.58817C46.0645 1.46997 30.2361 13.541 37.7522 22.3034C30.5397 13.7699 48.4049 3.61616 59.1692 9.18489C55.4569 13.3553 52.951 19.1496 52.9103 26.8817C53.7391 19.0936 56.353 13.4985 59.8928 9.5762C62.2617 10.9444 64.254 12.7026 65.8583 14.6436C58.6813 23.6043 60.3058 35.7447 66.5037 35.7447C72.7016 35.7447 74.3261 23.6043 67.1491 14.6436C68.755 12.7008 70.7427 10.9449 73.1146 9.5762C76.6534 13.4984 79.2684 19.0951 80.0971 26.8817C80.0564 19.1496 77.5505 13.3553 73.8383 9.18489C84.659 3.59262 102.65 13.8811 95.1378 22.4403C102.941 13.6666 87.0155 1.43801 73.2808 8.59794C71.5243 6.75474 69.5278 5.24743 67.4132 4.04904C71.7007 2.05026 76.365 1.35164 80.5861 1.45663C91.8926 1.73793 101.336 10.4961 102.12 11.1316C116.751 22.9923 127.141 21.2044 131.155 16.2088C134.528 12.0119 132.809 3.08762 125.249 6.69034C131.701 4.82946 133.511 11.458 130.05 15.5827C126.59 19.7075 117.856 21.3292 103.225 9.4686C102.441 8.83303 91.8926 0.544455 80.5861 0.263154C76.2505 0.15531 71.1446 1.15642 66.5037 3.55991C61.862 1.1553 56.7578 0.155279 52.4214 0.263154ZM66.5037 4.49904C68.6716 5.62011 70.7267 7.09023 72.5572 8.97947C70.1204 10.3579 68.1164 12.0421 66.5037 13.8805C64.891 12.0421 62.8871 10.3579 60.4503 8.97947C62.2809 7.09007 64.3356 5.62017 66.5037 4.49904ZM66.4939 15.4653C72.4997 23.4342 72.4183 33.9251 66.5037 33.9251C60.5904 33.9251 60.4919 23.4336 66.4939 15.4653Z"
            fill="#8C6E6E" />
    </g>
    <defs>
        <clipPath id="clip0_82_4028">
            <rect width="133" height="36" fill="white" />
        </clipPath>
    </defs>
</svg>