<svg width="133" height="36" viewBox="0 0 133 36" fill="none" xmlns="http://www.w3.org/2000/svg">
    <g clip-path="url(#clip0_82_4030)">
        <path
            d="M52.4214 35.7368C41.1148 35.4555 30.5562 27.167 29.7722 26.5314C15.1417 14.6708 6.41777 16.2925 2.95709 20.4173C-0.503575 24.542 1.30623 31.1705 7.75879 29.3097C0.198167 32.9124 -1.53058 23.9881 1.84224 19.7912C5.85695 14.7956 16.2565 13.0077 30.8871 24.8684C31.6711 25.5039 41.1148 34.2621 52.4214 34.5434C56.6448 34.6484 61.3047 33.9524 65.5942 31.951C63.481 30.754 61.4826 29.2525 59.7266 27.4118C46.0645 34.53 30.2361 22.459 37.7522 13.6966C30.5397 22.2301 48.4049 32.3838 59.1692 26.8151C55.4569 22.6447 52.951 16.8504 52.9103 9.11835C53.7391 16.9064 56.353 22.5015 59.8928 26.4238C62.2617 25.0556 64.254 23.2974 65.8583 21.3564C58.6813 12.3957 60.3058 0.255304 66.5037 0.255304C72.7016 0.255304 74.3261 12.3957 67.1491 21.3564C68.755 23.2992 70.7427 25.0551 73.1146 26.4238C76.6534 22.5016 79.2684 16.9049 80.0971 9.11835C80.0564 16.8504 77.5505 22.6447 73.8383 26.8151C84.659 32.4074 102.65 22.1189 95.1378 13.5597C102.941 22.3334 87.0155 34.562 73.2808 27.4021C71.5243 29.2453 69.5278 30.7526 67.4132 31.951C71.7007 33.9497 76.365 34.6484 80.5861 34.5434C91.8926 34.2621 101.336 25.5039 102.12 24.8684C116.751 13.0077 127.141 14.7956 131.155 19.7912C134.528 23.9881 132.809 32.9124 125.249 29.3097C131.701 31.1705 133.511 24.542 130.05 20.4173C126.59 16.2925 117.856 14.6708 103.225 26.5314C102.441 27.167 91.8926 35.4555 80.5861 35.7368C76.2505 35.8447 71.1446 34.8436 66.5037 32.4401C61.862 34.8447 56.7578 35.8447 52.4214 35.7368ZM66.5037 31.501C68.6716 30.3799 70.7267 28.9098 72.5572 27.0205C70.1204 25.6421 68.1164 23.9579 66.5037 22.1195C64.891 23.9579 62.8871 25.6421 60.4503 27.0205C62.2809 28.9099 64.3356 30.3798 66.5037 31.501ZM66.4939 20.5347C72.4997 12.5658 72.4183 2.07487 66.5037 2.07487C60.5904 2.07487 60.4919 12.5664 66.4939 20.5347Z"
            fill="#8C6E6E" />
    </g>
    <defs>
        <clipPath id="clip0_82_4030">
            <rect width="133" height="36" fill="white" transform="matrix(1 0 0 -1 0 36)" />
        </clipPath>
    </defs>
</svg>