<svg width="570" height="80" viewBox="0 0 570 80" fill="none" xmlns="http://www.w3.org/2000/svg">
<path d="M257.871 75.8988C256.235 72.2919 256.436 71.4516 259.541 68.9265C261.482 67.3474 264.09 66.448 265.335 66.9279C268.221 68.0402 268.284 70.5988 265.425 70.5988C262.699 70.5988 260.767 75.3316 262.7 77.2734C264.913 79.4962 270.542 75.768 271.646 71.3478C272.892 66.3625 275.398 67.9053 275.398 73.6574C275.398 78.6237 273.163 80 265.098 80C260.824 80 259.353 79.1654 257.871 75.8988ZM295.99 78.1198C293.504 75.6225 293.63 72.9583 296.498 67.3873C299.169 62.2008 302.049 61.1422 300.838 65.7921C300.188 68.2892 300.664 68.6582 303.557 67.8984C309.773 66.2656 312.944 75.0511 307.492 78.8008C304.875 80.6006 298.058 80.1971 295.99 78.1198ZM306.216 74.1243C306.619 72.8964 305.355 72.1657 302.828 72.1657C300.207 72.1657 298.798 73.0252 298.798 74.625C298.798 77.5717 305.228 77.1376 306.216 74.1243ZM281.823 71.4709C280.829 67.5048 278.579 63.4545 276.596 62.059L273.114 59.6092L277.305 55.7058C279.775 53.4048 281.889 49.3892 282.452 45.9237C282.978 42.6905 283.787 38.0179 284.25 35.5402C285.57 28.4779 282.479 31.8207 277.187 43.1805C271.998 54.3163 269.796 55.3954 261.281 50.9729C255.662 48.0541 255.437 46.1819 260.55 44.8929C267.364 43.1751 275.006 34.9171 278.746 25.2313C281.687 17.6111 282.591 16.4678 284.067 18.4957C286.052 21.2229 289.438 19.9332 289.438 16.4497C289.438 15.208 290.14 14.1919 290.998 14.1919C291.856 14.1919 292.558 15.865 292.558 17.9099C292.558 22.7603 298.302 35.9545 302.355 40.4128C304.105 42.3386 307.882 44.3561 310.748 44.896C313.613 45.436 315.958 46.3294 315.958 46.8813C315.958 47.9882 303.437 54.9415 301.456 54.9346C299.29 54.9257 292.631 38.7742 291.589 31.0005C291.038 26.8877 289.884 23.0865 289.026 22.5534C286.393 20.919 288.497 47.227 291.479 53.232C294.814 59.947 294.787 60.6324 290.998 65.4707C289.282 67.6618 287.878 71.4748 287.878 73.9439C287.878 81.065 283.812 79.4043 281.823 71.4709ZM375.238 73.0581C375.238 69.7791 375.981 69.032 379.246 69.032C382.511 69.032 383.162 69.6862 382.756 72.5574C382.436 74.823 381.003 76.2617 378.748 76.5835C375.889 76.9913 375.238 76.337 375.238 73.0581ZM187.519 74.2548C186.947 73.6803 186.479 71.8686 186.479 70.2287C186.479 68.033 187.404 67.3791 189.989 67.7479C194.574 68.4019 195.98 75.2994 191.528 75.2994C189.895 75.2994 188.091 74.8294 187.519 74.2548ZM366.19 64.018C363.877 61.6948 363.737 55.4758 365.966 54.0918C369.327 52.0058 375.238 54.857 375.238 58.5639C375.238 62.3685 372.61 65.8982 369.778 65.8982C368.834 65.8982 367.219 65.0522 366.19 64.018ZM195.964 62.132C192.653 58.125 194.544 54.1468 199.76 54.1468C203.897 54.1468 204.419 54.6739 204.419 58.8474C204.419 62.4199 203.638 63.6601 201.163 64.0153C199.372 64.2724 197.032 63.4249 195.964 62.132ZM304.622 59.4364C305.68 58.3656 306.939 57.8842 307.419 58.3666C307.9 58.849 307.034 59.7251 305.495 60.3135C303.272 61.1638 303.093 60.9838 304.622 59.4364ZM254.339 56.2709C239.554 50.096 237.031 48.274 231.265 39.6084C226.606 32.6074 225.479 29.4564 225.479 23.4289C225.479 19.3121 226.117 15.5473 226.898 15.0628C227.679 14.5783 228.272 17.1851 228.217 20.8556C228.056 31.496 233.379 41.5329 242.148 47.1284C246.279 49.7643 251.414 52.3647 253.559 52.9073C258.61 54.1849 267.534 59.6329 264.479 59.5738C263.192 59.5472 258.629 58.0626 254.339 56.2709ZM313.753 52.7976C317.259 50.7836 322.34 47.493 325.044 45.4852C327.747 43.4773 330.309 42.1858 330.737 42.6152C331.823 43.7066 312.314 56.5013 309.598 56.4782C308.377 56.4694 310.247 54.8115 313.753 52.7976ZM348.18 50.498C344.715 46.6529 344.908 45.715 349.526 43.9516C355.407 41.7058 356.856 36.1542 353.899 27.1966C352.534 23.0603 349.988 18.0923 348.241 16.1567C346.494 14.2211 345.567 12.1334 346.181 11.5173C347.351 10.3419 351.931 15.3248 359.581 26.0968C365.059 33.8101 370.581 37.6948 376.066 37.6948C379.573 37.6948 380.058 38.2802 379.631 42.0037C378.99 47.605 373.324 48.5811 367.322 44.1244C362.954 40.8808 362.951 40.8808 361.953 44.0405C360.775 47.7673 355.14 53.3634 352.565 53.3634C351.573 53.3634 349.6 52.074 348.18 50.498ZM209.434 47.992C208.116 46.6682 206.726 44.6911 206.346 43.5985C205.832 42.121 204.865 42.3145 202.574 44.3539C198.577 47.9112 192.326 47.8541 189.061 44.2305C184.961 39.6799 185.944 37.6993 192.329 37.6449C199.766 37.5814 202.439 35.4799 210.42 23.4216C213.984 18.038 218.654 12.5251 220.799 11.1706L224.699 8.70784L221.973 12.625C216.518 20.4637 212.779 28.6978 212.653 33.1503C212.515 38.0318 216.75 43.9622 220.375 43.9622C221.639 43.9622 222.366 45.1374 222.071 46.7041C221.383 50.3473 212.664 51.2361 209.434 47.992ZM239.86 37.846C233.657 31.7998 231.7 28.2937 234.527 28.2937C235.213 28.2937 236.561 29.0831 237.521 30.0479C238.482 31.0127 242.284 32.3561 245.971 33.0332C255.244 34.7365 262.851 31.3554 271.511 21.6818C277.034 15.5111 278.518 14.5268 278.518 17.0343C278.518 24.6014 261.01 41.8864 251.83 43.3827C247.084 44.1562 245.657 43.496 239.86 37.846ZM311.835 40.222C303.917 35.8032 297.238 25.9658 297.238 18.7232C297.238 15.7165 297.669 15.9317 300.748 20.4753C302.679 23.3242 306.133 27.0501 308.425 28.755C313.557 32.5728 323.725 32.8361 329.112 29.2907C333.824 26.1896 334.678 26.1119 334.678 28.7839C334.678 31.1524 327.7 38.052 322.691 40.6371C318.568 42.7643 316.229 42.6746 311.835 40.222ZM443.357 38.2171C441.234 36.0845 442.423 32.8538 445.793 31.6019C449.2 30.3358 449.177 30.2634 444.623 27.914C442.068 26.596 435.765 24.6904 430.617 23.6794C408.285 19.2936 413.692 17.6478 452.19 17.1128C474.827 16.7984 486.637 15.9975 491.128 14.4726C496.237 12.7382 498.202 12.6777 500.599 14.1813C504.072 16.3594 518.107 17.2629 549.046 17.2997C560.987 17.313 570.41 17.6732 569.986 18.0986C569.563 18.5236 554.529 19.0671 536.576 19.306C509.292 19.6689 503.126 20.1806 498.994 22.4238C494.529 24.8488 493.519 24.8834 488.515 22.7831C482.047 20.0687 442.317 19.3919 442.317 21.9961C442.317 22.8415 443.984 23.9533 446.021 24.4669C449.578 25.3636 453.237 30.8314 453.237 35.2503C453.237 38.4476 445.808 40.6785 443.357 38.2171ZM121.199 35.7412C118.642 33.1731 118.956 30.8495 122.467 26.3666L125.534 22.4501L117.397 21.4684C102.71 19.6963 88.1639 20.3296 82.5955 22.9836C77.7255 25.3047 76.7938 25.3047 71.0182 22.9836C66.9587 21.3522 60.0259 20.4594 51.4168 20.4594C43.9074 20.4594 38.4754 19.8434 38.9653 19.0474C39.4431 18.2707 46.0329 17.677 53.6093 17.728C64.2232 17.7995 68.4812 17.17 72.1638 14.9851C76.6875 12.3011 77.2933 12.2901 83.4884 14.7799C88.8606 16.9388 95.7409 17.4143 121.877 17.4326C147.503 17.4503 153.72 17.8665 153.72 19.5626C153.72 20.8859 150.961 22.0596 146.31 22.716C131.406 24.819 127.905 26.76 128.625 32.5207C128.991 35.4541 123.349 37.901 121.199 35.7412ZM338.141 32.863C340.803 29.2475 341.698 25.9174 341.698 19.6343C341.698 10.6206 339.831 7.74506 330.659 2.63495L326.098 0.0935827L333.118 0.483541C338.094 0.760246 340.007 1.4968 339.687 3.01441C339.44 4.19189 340.187 6.6597 341.348 8.49843C344.947 14.1964 344.728 26.0182 340.909 32.2246C339.058 35.2332 336.878 37.6947 336.064 37.6947C335.25 37.6947 336.185 35.5205 338.141 32.863ZM169.764 29.1991C166.641 27.7828 164.362 25.3805 163.726 22.8353C162.25 16.9271 164.013 16.2655 166.802 21.6815C172.295 32.3501 188.37 29.8649 203.639 15.9865C207.5 12.4772 214.618 7.46494 219.457 4.84811C227.267 0.624875 229.732 0.0901941 241.395 0.0901941C253.938 0.0901941 254.737 0.30246 258.987 4.75736C267.186 13.3529 262.914 27.0106 251.723 27.9804C242.924 28.7429 238.769 23.7861 239.339 13.2069C239.573 8.85705 247.39 5.33766 251.494 7.73451C254.022 9.2113 253.883 9.40138 250.24 9.44371C245.002 9.50456 242.278 12.8243 242.916 18.3697C244.059 28.2968 258.343 27.5476 260.553 17.4448C261.841 11.5538 259.448 7.06635 253.323 3.88487C247.241 0.726127 240.249 1.91965 234.197 7.1495C229.003 11.6378 226.682 11.0821 230.93 6.36728C236.454 0.237137 228.497 2.77434 216.119 11.0902C209.684 15.4134 200.75 21.4166 196.265 24.4306C186.698 30.8601 177.195 32.57 169.764 29.1991ZM380.23 29.7829C373.868 27.2186 342.118 4.62954 343.262 3.48075C344.296 2.44215 356.808 10.4245 363.538 16.4162C372.725 24.5962 381.526 28.2937 391.807 28.2937C398.917 28.2937 401.18 27.635 403.567 24.871C407.406 20.4247 408.858 14.4293 406.635 12.1969C405.331 10.8875 404.877 11.4616 404.877 14.4191C404.877 18.3848 402.592 21.0272 395.929 24.7683C392.238 26.8398 388.028 27.459 389.812 25.6679C390.392 25.0855 389.315 22.951 387.42 20.9245C383.247 16.4629 382.813 7.47815 386.588 3.6865C390.193 0.0656222 391.717 2.21597 388.657 6.60495C385.497 11.1356 385.482 14.856 388.609 17.9972C391.81 21.2126 399.58 21.2022 400.81 17.9794C402.46 13.6623 401.903 12.1186 399.437 14.1738C396.082 16.971 392.08 14.898 392.678 10.6719C393.018 8.26598 394.421 6.97226 397.077 6.61512C399.222 6.32687 401.611 5.47835 402.386 4.72991C403.185 3.95829 405.043 4.03956 406.676 4.91778C408.874 6.09904 409.557 8.2816 409.557 14.1175C409.557 24.0095 408.568 26.3484 403.206 29.1336C398.319 31.6719 385.797 32.0265 380.23 29.7829ZM311.987 22.8809C309.676 20.5594 308.158 17.2273 308.158 14.4745C308.158 9.65488 313.36 1.64049 316.461 1.681C317.762 1.69877 317.797 2.04126 316.582 2.85623C311.348 6.36634 309.679 17.062 313.73 21.1309C316.631 24.0447 323.916 24.375 326.566 21.7128C329.332 18.9351 328.881 11.5642 325.875 10.4055C322.622 9.15169 320.824 10.8039 323.58 12.5146C326.587 14.3811 324.23 20.4594 320.499 20.4594C318.763 20.4594 316.688 18.7762 315.677 16.5486C314.211 13.3172 314.395 12.0923 316.732 9.49772C322.713 2.85983 332.702 8.76186 330.919 17.8805C329.097 27.203 318.957 29.8813 311.987 22.8809ZM171.716 20.5225C167.965 16.3594 169.677 10.1963 175.412 7.21768C179.869 4.90278 179.904 4.92112 180.65 9.93112C181.488 15.5558 179.501 17.7243 174.779 16.3383C171.856 15.4803 171.823 15.5943 174.257 18.1441C178.303 22.382 184.284 20.1235 185.525 13.8895C187.121 5.87818 180.009 0.851351 171.269 3.81262C169.339 4.46677 167.737 6.18833 167.71 7.63834C167.682 9.08839 166.629 11.6434 165.37 13.3163C163.457 15.8569 163.079 15.9382 163.079 13.81C163.079 10.0363 166.125 2.67665 168.247 1.3212C172.264 -1.24407 180.376 0.0848011 184.21 3.9361C189.421 9.16978 189.302 16.1004 183.929 20.3456C178.786 24.4088 175.264 24.4599 171.716 20.5225ZM247.997 19.7949C243.866 16.7614 246.243 12.625 252.117 12.625C255.94 12.625 256.805 13.168 256.066 15.1035C255.545 16.4667 255.119 18.1539 255.119 18.853C255.119 21.2376 250.748 21.8156 247.997 19.7949ZM0.0398475 18.9266C1.22274 17.0042 33.6006 17.1255 33.6006 19.0523C33.6006 19.8262 25.8372 20.4594 16.3486 20.4594C5.50074 20.4594 -0.553179 19.8904 0.0398475 18.9266ZM294.118 11.8417C294.118 10.549 294.394 9.49135 294.731 9.49135C295.069 9.49135 295.749 10.549 296.242 11.8417C296.736 13.1343 296.46 14.1919 295.629 14.1919C294.798 14.1919 294.118 13.1343 294.118 11.8417ZM280.561 8.49497C278.581 3.31207 286.02 -2.40322 289.802 1.39541C290.677 2.27491 290.94 4.80881 290.386 7.02636C289.639 10.0192 288.369 11.0582 285.46 11.0582C283.27 11.0582 281.108 9.92691 280.561 8.49497Z" fill="#1D1112"/>
</svg>
