<svg width="563" height="78" viewBox="0 0 563 78" fill="none" xmlns="http://www.w3.org/2000/svg">
<path fill-rule="evenodd" clip-rule="evenodd" d="M562.314 5.11071C428.484 6.58654 296.715 6.44744 162.488 6.44744C110.569 6.44744 62.6702 8.03611 11.3831 7.78477C7.98615 7.76865 2.80001 7.61342 0.686035 5.11071C1.46811 0.237826 8.86255 2.37934 11.3831 2.43486C57.176 3.44383 130.651 1.49276 185.222 1.09813C202.522 0.973952 222.518 2.41218 241.383 2.43486C293.581 2.49874 349.472 0.951266 404.524 1.09813C445.975 1.20918 489.129 2.16262 523.535 1.09813C530.263 0.890966 538.102 0.820518 544.929 1.09813C550.263 1.31545 559.029 -1.7198 562.314 5.11071Z" fill="#1D1112"/>
<path fill-rule="evenodd" clip-rule="evenodd" d="M266.79 14.4714C266.236 20.9801 258.176 18.2261 253.417 18.4822C245.522 18.9102 235.728 19.7329 229.348 19.8195C221.929 19.9222 212.957 15.983 209.289 21.158C205.935 18.1723 201.555 19.3461 195.918 19.8195C177.173 21.398 151.108 19.6858 134.407 18.4822C136.356 11.7108 147.711 15.9407 154.464 15.8081C169.057 15.521 187.576 12.7812 202.603 15.8081C204.412 14.4953 205.277 12.2391 206.615 10.4582C210.815 9.82478 212.079 12.1269 213.301 14.4708C229.19 13.8332 253.069 14.8433 266.79 14.4714Z" fill="#1D1112"/>
<path fill-rule="evenodd" clip-rule="evenodd" d="M281.498 11.7973C282.814 19.7962 279.543 23.2118 272.139 22.4948C265.151 16.429 273.119 5.90057 281.498 11.7973Z" fill="#1D1112"/>
<path fill-rule="evenodd" clip-rule="evenodd" d="M417.893 17.1455C398.239 19.3377 369.342 19.3998 349.698 17.1455C346.972 17.5389 347.075 20.7646 344.346 21.158C329.527 14.5824 301.09 21.6231 284.175 17.1455C286.493 9.75015 296.14 14.5795 302.896 14.4714C315.794 14.2624 333.781 13.3806 343.01 10.4588C348.245 8.34656 345.78 13.9311 348.359 14.4714C361.845 11.6976 376.602 15.4475 395.161 14.4714C403.303 14.0421 414.609 9.7209 417.893 17.1455Z" fill="#1D1112"/>
<path fill-rule="evenodd" clip-rule="evenodd" d="M276.15 27.8429C278.726 40.9761 277.234 64.9501 277.487 75.983C273.708 74.8791 274.023 77.8696 270.801 77.3216C276.34 66.3674 272.194 45.7296 273.476 30.5181C266.473 37.7797 265.265 50.8353 258.767 58.5996C257.631 64.3883 260.861 71.5615 250.744 70.6343C248.252 62.8605 256.78 57.0682 260.104 50.5774C261.97 46.9308 262.373 42.1929 264.116 38.5397C265.904 34.7934 269.407 31.9772 269.464 27.8423C260.709 31.5695 256.825 40.1624 248.07 43.8908C244.299 46.8066 244.486 53.6795 237.371 53.2515C234.157 50.1661 235.331 48.9386 236.034 43.8908C248.365 43.0878 257.505 31.6787 266.79 23.8315C269.794 25.2852 272.598 26.9384 276.15 27.8429Z" fill="#1D1112"/>
<path fill-rule="evenodd" clip-rule="evenodd" d="M282.836 23.8321C294.874 29.6238 300.359 41.9684 316.266 43.8914C318.72 48.492 315.312 50.6927 312.256 53.2521C308.018 52.5828 306.791 48.91 305.57 45.2275C296.938 40.4866 290.098 33.954 282.836 27.8435C281.23 38.8251 293.467 47.5129 294.87 59.9393C295.776 64.9382 299.314 58.9471 300.219 63.9489C300.219 65.7316 300.219 67.5143 300.219 69.3C298.638 70.8379 295.494 70.8117 292.197 70.6355C292.859 51.2515 280.671 44.7183 278.824 27.8435C282.419 28.7653 281.41 25.0793 282.836 23.8321Z" fill="#1D1112"/>
</svg>
