<svg xmlns="http://www.w3.org/2000/svg" viewBox="0 0 120 24" fill="black">
    <path
        d="M12 0l3.09 7.26L24 9.27l-6 5.86L19.18 24 12 19.77 4.82 24 6 15.13 0 9.27l8.91-1.99L12 0zM36 0l3.09 7.26L48 9.27l-6 5.86L43.18 24 36 19.77 28.82 24 30 15.13 24 9.27l8.91-1.99L36 0zM60 0l3.09 7.26L72 9.27l-6 5.86L67.18 24 60 19.77 52.82 24 54 15.13 48 9.27l8.91-1.99L60 0zM84 0l3.09 7.26L96 9.27l-6 5.86L91.18 24 84 19.77 76.82 24 78 15.13 72 9.27l8.91-1.99L84 0zM108 0l3.09 7.26L120 9.27l-6 5.86L115.18 24 108 19.77 100.82 24 102 15.13 96 9.27l8.91-1.99L108 0z" />
</svg>