<svg xmlns="http://www.w3.org/2000/svg" viewBox="0 0 120 24" fill="black">
    <g transform="translate(0, 0)">
        <path
            d="M12 0l3.09 7.26L24 9.27l-6 5.86L19.18 24 12 19.77 4.82 24 6 15.13 0 9.27l8.91-1.99L12 0z" />
    </g>
    <g transform="translate(24, 0)">
        <path
            d="M12 0l3.09 7.26L24 9.27l-6 5.86L19.18 24 12 19.77 4.82 24 6 15.13 0 9.27l8.91-1.99L12 0z" />
    </g>
    <g transform="translate(48, 0)">
        <path
            d="M12 0l3.09 7.26L24 9.27l-6 5.86L19.18 24 12 19.77 4.82 24 6 15.13 0 9.27l8.91-1.99L12 0z" />
    </g>
    <g transform="translate(72, 0)">
        <path
            d="M12 0l3.09 7.26L24 9.27l-6 5.86L19.18 24 12 19.77 4.82 24 6 15.13 0 9.27l8.91-1.99L12 0z" />
    </g>
    <g transform="translate(96, 0)">
        <path
            d="M12 0l3.09 7.26L24 9.27l-6 5.86L19.18 24 12 19.77 4.82 24 6 15.13 0 9.27l8.91-1.99L12 0z" />
    </g>
</svg>