<svg width="140" height="72" viewBox="0 0 140 72" fill="none" xmlns="http://www.w3.org/2000/svg">
    <path fill-rule="evenodd" clip-rule="evenodd"
        d="M104.936 60.7908C99.704 64.4391 95.707 66.9201 92.9456 68.2335C89.3121 69.9117 85.5694 70.7509 81.7179 70.7509C77.7937 70.7509 73.1064 69.8388 67.656 68.0146L73.5424 68.4524C78.3387 68.4524 83.0623 67.066 87.7133 64.2933C88.3674 63.9285 91.4922 61.8489 97.0879 58.0545C101.957 54.6979 106.063 52.2536 109.406 50.7213C112.749 49.1889 115.692 48.4228 118.235 48.4228C122.305 48.4228 126.102 49.0978 129.626 50.4476C133.151 51.7974 136.039 53.5306 138.292 55.6466L137.747 55.8655C133.968 54.0412 131.934 53.0561 131.643 52.9103C129.536 52.0347 127.501 51.5969 125.539 51.5969C123.068 51.5969 120.197 52.29 116.927 53.6764C113.657 55.0629 109.66 57.4342 104.936 60.7908ZM82.154 54.8804C100.031 45.2487 112.858 40.4328 120.633 40.4328C124.412 40.4328 128.991 41.2354 134.368 42.8408C132.551 41.4543 129.917 40.1591 126.465 38.9552C123.013 37.7513 119.689 37.1493 116.491 37.1493C110.968 37.1493 105.736 38.0432 100.794 39.8308C95.8525 41.6185 87.023 45.869 74.3055 52.582C66.239 56.8141 59.3898 59.8969 53.7577 61.8306C48.1256 63.7643 43.3476 64.731 39.4234 64.731C29.1767 64.731 20.6379 61.5205 13.8068 55.0993C7.33913 48.97 4.1052 41.7826 4.1052 33.5373C4.1052 24.7082 7.8477 17.3021 15.3329 11.3187C22.4546 5.6272 30.8118 2.78148 40.4044 2.78148C45.9275 2.78148 51.5593 3.54763 57.3004 5.07993C63.9136 6.83117 70.1995 9.49442 76.1586 13.0699C71.7983 9.56745 66.4207 6.83117 60.0256 4.86104C54.866 3.25572 48.7252 2.05175 41.6035 1.24912C30.5575 1.24912 21.2555 4.16793 13.6978 10.0053C5.704 16.2076 1.70703 24.3434 1.70703 34.413C1.70703 43.7528 5.46777 52.0164 12.9893 59.2038C20.5107 66.3911 29.0314 69.9847 38.5513 69.9847L43.4566 69.6564C48.0349 69.2916 53.5034 67.8868 59.8621 65.4425C66.2207 62.9982 73.6515 59.4774 82.154 54.8804ZM19.8021 41.5274C24.2351 44.4461 28.5045 46.5804 32.6104 47.9302C36.7164 49.28 40.6952 49.9551 44.5466 49.9551C48.6162 49.9551 52.5224 49.3714 56.2649 48.2039C60.0073 47.0363 64.0589 45.3581 68.4191 43.1691C69.5092 42.6582 73.4334 40.4692 80.1918 36.602C92.9819 29.3052 103.265 25.6568 111.041 25.6568C115.11 25.6568 119.216 26.5324 123.358 28.2837H124.776C122.377 26.8972 119.525 25.6385 116.219 24.5076C112.912 23.3767 110.06 22.8111 107.661 22.8111C103.81 22.8111 99.486 23.5042 94.6897 24.8907C87.9313 26.8608 80.7369 30.1079 73.1064 34.6319C65.9847 38.864 60.1709 41.8557 55.6653 43.6069C50.3602 45.6501 45.346 46.6715 40.6224 46.6715C34.6633 46.6715 28.1229 44.9567 21.0012 41.5274H19.8021Z"
        fill="#8C6E6E" />
</svg>