<svg width="140" height="72" viewBox="0 0 140 72" fill="none" xmlns="http://www.w3.org/2000/svg">
    <path fill-rule="evenodd" clip-rule="evenodd"
        d="M35.0637 11.2092C40.296 7.56088 44.293 5.0799 47.0544 3.76648C50.6879 2.08833 54.4306 1.24908 58.2821 1.24908C62.2063 1.24908 66.8936 2.16115 72.344 3.98543L66.4576 3.5476C61.6613 3.5476 56.9377 4.93404 52.2867 7.70673C51.6326 8.07153 48.5078 10.1511 42.9121 13.9455C38.0431 17.3021 33.9373 19.7464 30.5944 21.2787C27.2515 22.8111 24.3083 23.5772 21.7648 23.5772C17.6953 23.5772 13.8981 22.9022 10.3736 21.5524C6.84916 20.2026 3.96052 18.4694 1.70761 16.3534L2.25265 16.1345C6.03163 17.9588 8.06628 18.9439 8.357 19.0897C10.4644 19.9653 12.4993 20.4031 14.4614 20.4031C16.9323 20.4031 19.8027 19.71 23.0729 18.3236C26.3431 16.9371 30.3401 14.5658 35.0637 11.2092ZM57.846 17.1196C39.9689 26.7513 27.1424 31.5672 19.3667 31.5672C15.5878 31.5672 11.0094 30.7646 5.63185 29.1592C7.44871 30.5457 10.0829 31.8409 13.5348 33.0448C16.9868 34.2487 20.3115 34.8507 23.509 34.8507C29.032 34.8507 34.2644 33.9568 39.2059 32.1692C44.1475 30.3815 52.977 26.131 65.6945 19.418C73.761 15.1859 80.6102 12.1031 86.2423 10.1694C91.8744 8.23569 96.6524 7.26897 100.577 7.26897C110.823 7.26897 119.362 10.4795 126.193 16.9007C132.661 23.03 135.895 30.2174 135.895 38.4627C135.895 47.2918 132.152 54.6979 124.667 60.6813C117.545 66.3728 109.188 69.2185 99.5956 69.2185C94.0725 69.2185 88.4407 68.4524 82.6996 66.9201C76.0864 65.1688 69.8005 62.5056 63.8414 58.9301C68.2017 62.4326 73.5793 65.1688 79.9744 67.139C85.134 68.7443 91.2748 69.9483 98.3965 70.7509C109.442 70.7509 118.745 67.8321 126.302 61.9947C134.296 55.7924 138.293 47.6566 138.293 37.587C138.293 28.2472 134.532 19.9836 127.011 12.7962C119.489 5.60886 110.969 2.0153 101.449 2.0153L96.5434 2.34362C91.9651 2.70842 86.4966 4.11318 80.1379 6.55754C73.7793 9.00184 66.3485 12.5226 57.846 17.1196ZM120.198 30.4726C115.765 27.5539 111.496 25.4196 107.39 24.0698C103.284 22.72 99.3048 22.0449 95.4534 22.0449C91.3838 22.0449 87.4776 22.6286 83.7351 23.7961C79.9927 24.9637 75.9411 26.6419 71.5809 28.8309C70.4908 29.3418 66.5666 31.5308 59.8082 35.398C47.0181 42.6948 36.735 46.3432 28.9593 46.3432C24.8898 46.3432 20.7838 45.4676 16.6415 43.7163H15.2244C17.6226 45.1028 20.475 46.3615 23.7814 47.4924C27.0879 48.6233 29.9404 49.1889 32.3385 49.1889C36.19 49.1889 40.514 48.4958 45.3103 47.1093C52.0687 45.1392 59.2631 41.8921 66.8936 37.3681C74.0153 33.136 79.8291 30.1443 84.3347 28.3931C89.6398 26.3499 94.654 25.3285 99.3776 25.3285C105.337 25.3285 111.877 27.0433 118.999 30.4726H120.198Z"
        fill="#8C6E6E" />
</svg>