<svg width="140" height="72" viewBox="0 0 140 72" fill="none" xmlns="http://www.w3.org/2000/svg">
    <path fill-rule="evenodd" clip-rule="evenodd"
        d="M104.936 11.2092C99.704 7.56088 95.707 5.0799 92.9456 3.76648C89.3121 2.08833 85.5694 1.24908 81.7179 1.24908C77.7937 1.24908 73.1064 2.16115 67.656 3.98543L73.5424 3.5476C78.3387 3.5476 83.0623 4.93404 87.7133 7.70673C88.3674 8.07153 91.4922 10.1511 97.0879 13.9455C101.957 17.3021 106.063 19.7464 109.406 21.2787C112.749 22.8111 115.692 23.5772 118.235 23.5772C122.305 23.5772 126.102 22.9022 129.626 21.5524C133.151 20.2026 136.039 18.4694 138.292 16.3534L137.747 16.1345C133.968 17.9588 131.934 18.9439 131.643 19.0897C129.536 19.9653 127.501 20.4031 125.539 20.4031C123.068 20.4031 120.197 19.71 116.927 18.3236C113.657 16.9371 109.66 14.5658 104.936 11.2092ZM82.154 17.1196C100.031 26.7513 112.858 31.5672 120.633 31.5672C124.412 31.5672 128.991 30.7646 134.368 29.1592C132.551 30.5457 129.917 31.8409 126.465 33.0448C123.013 34.2487 119.689 34.8507 116.491 34.8507C110.968 34.8507 105.736 33.9568 100.794 32.1692C95.8525 30.3815 87.023 26.131 74.3055 19.418C66.239 15.1859 59.3898 12.1031 53.7577 10.1694C48.1256 8.23569 43.3476 7.26897 39.4234 7.26897C29.1767 7.26897 20.6379 10.4795 13.8068 16.9007C7.33913 23.03 4.1052 30.2174 4.1052 38.4627C4.1052 47.2918 7.8477 54.6979 15.3329 60.6813C22.4546 66.3728 30.8118 69.2185 40.4044 69.2185C45.9275 69.2185 51.5593 68.4524 57.3004 66.9201C63.9136 65.1688 70.1995 62.5056 76.1586 58.9301C71.7983 62.4326 66.4207 65.1688 60.0256 67.139C54.866 68.7443 48.7252 69.9483 41.6035 70.7509C30.5575 70.7509 21.2555 67.8321 13.6978 61.9947C5.704 55.7924 1.70703 47.6566 1.70703 37.587C1.70703 28.2472 5.46777 19.9836 12.9893 12.7962C20.5107 5.60886 29.0314 2.0153 38.5513 2.0153L43.4566 2.34362C48.0349 2.70842 53.5034 4.11318 59.8621 6.55754C66.2207 9.00184 73.6515 12.5226 82.154 17.1196ZM19.8021 30.4726C24.2351 27.5539 28.5045 25.4196 32.6104 24.0698C36.7164 22.72 40.6952 22.0449 44.5466 22.0449C48.6162 22.0449 52.5224 22.6286 56.2649 23.7961C60.0073 24.9637 64.0589 26.6419 68.4191 28.8309C69.5092 29.3418 73.4334 31.5308 80.1918 35.398C92.9819 42.6948 103.265 46.3432 111.041 46.3432C115.11 46.3432 119.216 45.4676 123.358 43.7163H124.776C122.377 45.1028 119.525 46.3615 116.219 47.4924C112.912 48.6233 110.06 49.1889 107.661 49.1889C103.81 49.1889 99.486 48.4958 94.6897 47.1093C87.9313 45.1392 80.7369 41.8921 73.1064 37.3681C65.9847 33.136 60.1709 30.1443 55.6653 28.3931C50.3602 26.3499 45.346 25.3285 40.6224 25.3285C34.6633 25.3285 28.1229 27.0433 21.0012 30.4726H19.8021Z"
        fill="#8C6E6E" />
</svg>