<svg width="140" height="72" viewBox="0 0 140 72" fill="none" xmlns="http://www.w3.org/2000/svg">
    <path fill-rule="evenodd" clip-rule="evenodd"
        d="M35.0637 60.7908C40.296 64.4391 44.293 66.9201 47.0544 68.2335C50.6879 69.9117 54.4306 70.7509 58.2821 70.7509C62.2063 70.7509 66.8936 69.8388 72.344 68.0146L66.4576 68.4524C61.6613 68.4524 56.9377 67.066 52.2867 64.2933C51.6326 63.9285 48.5078 61.8489 42.9121 58.0545C38.0431 54.6979 33.9373 52.2536 30.5944 50.7213C27.2515 49.1889 24.3083 48.4228 21.7648 48.4228C17.6953 48.4228 13.8981 49.0978 10.3736 50.4476C6.84916 51.7974 3.96052 53.5306 1.70761 55.6466L2.25265 55.8655C6.03163 54.0412 8.06628 53.0561 8.357 52.9103C10.4644 52.0347 12.4993 51.5969 14.4614 51.5969C16.9323 51.5969 19.8027 52.29 23.0729 53.6764C26.3431 55.0629 30.3401 57.4342 35.0637 60.7908ZM57.846 54.8804C39.9689 45.2487 27.1424 40.4328 19.3667 40.4328C15.5878 40.4328 11.0094 41.2354 5.63185 42.8408C7.44871 41.4543 10.0829 40.1591 13.5348 38.9552C16.9868 37.7513 20.3115 37.1493 23.509 37.1493C29.032 37.1493 34.2644 38.0432 39.2059 39.8308C44.1475 41.6185 52.977 45.869 65.6945 52.582C73.761 56.8141 80.6102 59.8969 86.2423 61.8306C91.8744 63.7643 96.6524 64.731 100.577 64.731C110.823 64.731 119.362 61.5205 126.193 55.0993C132.661 48.97 135.895 41.7826 135.895 33.5373C135.895 24.7082 132.152 17.3021 124.667 11.3187C117.545 5.6272 109.188 2.78148 99.5956 2.78148C94.0725 2.78148 88.4407 3.54763 82.6996 5.07993C76.0864 6.83117 69.8005 9.49442 63.8414 13.0699C68.2017 9.56745 73.5793 6.83117 79.9744 4.86104C85.134 3.25572 91.2748 2.05175 98.3965 1.24912C109.442 1.24912 118.745 4.16793 126.302 10.0053C134.296 16.2076 138.293 24.3434 138.293 34.413C138.293 43.7528 134.532 52.0164 127.011 59.2038C119.489 66.3911 110.969 69.9847 101.449 69.9847L96.5434 69.6564C91.9651 69.2916 86.4966 67.8868 80.1379 65.4425C73.7793 62.9982 66.3485 59.4774 57.846 54.8804ZM120.198 41.5274C115.765 44.4461 111.496 46.5804 107.39 47.9302C103.284 49.28 99.3048 49.9551 95.4534 49.9551C91.3838 49.9551 87.4776 49.3714 83.7351 48.2039C79.9927 47.0363 75.9411 45.3581 71.5809 43.1691C70.4908 42.6582 66.5666 40.4692 59.8082 36.602C47.0181 29.3052 36.735 25.6568 28.9593 25.6568C24.8898 25.6568 20.7838 26.5324 16.6415 28.2837H15.2244C17.6226 26.8972 20.475 25.6385 23.7814 24.5076C27.0879 23.3767 29.9404 22.8111 32.3385 22.8111C36.19 22.8111 40.514 23.5042 45.3103 24.8907C52.0687 26.8608 59.2631 30.1079 66.8936 34.6319C74.0153 38.864 79.8291 41.8557 84.3347 43.6069C89.6398 45.6501 94.654 46.6715 99.3776 46.6715C105.337 46.6715 111.877 44.9567 118.999 41.5274H120.198Z"
        fill="#8C6E6E" />
</svg>